<?xml version="1.0" encoding="UTF-8"?>
<!DOCTYPE svg PUBLIC "-//W3C//DTD SVG 1.1//EN" "http://www.w3.org/Graphics/SVG/1.1/DTD/svg11.dtd">
<svg xmlns="http://www.w3.org/2000/svg" version="1.1" width="604px" height="604px" style="shape-rendering:geometricPrecision; text-rendering:geometricPrecision; image-rendering:optimizeQuality; fill-rule:evenodd; clip-rule:evenodd" xmlns:xlink="http://www.w3.org/1999/xlink">
<g><path style="opacity:1" fill="#fefefe" d="M -0.5,-0.5 C 200.833,-0.5 402.167,-0.5 603.5,-0.5C 603.5,126.5 603.5,253.5 603.5,380.5C 602.504,394.99 602.171,409.657 602.5,424.5C 522.166,424.333 441.833,424.5 361.5,425C 442.166,425.5 522.833,425.667 603.5,425.5C 603.5,484.833 603.5,544.167 603.5,603.5C 402.167,603.5 200.833,603.5 -0.5,603.5C -0.5,402.167 -0.5,200.833 -0.5,-0.5 Z"/></g>
<g><path style="opacity:1" fill="#f7dcb3" d="M 441.5,131.5 C 436.105,130.555 434.439,132.555 436.5,137.5C 440.813,139.834 444.813,142.5 448.5,145.5C 443.479,144.553 438.979,142.553 435,139.5C 433.302,136.604 433.136,133.604 434.5,130.5C 437.059,130.198 439.393,130.532 441.5,131.5 Z"/></g>
<g><path style="opacity:1" fill="#f8ddb4" d="M 162.5,133.5 C 158.813,131.657 154.813,130.99 150.5,131.5C 150.67,132.822 150.337,133.989 149.5,135C 146.793,135.395 144.127,135.895 141.5,136.5C 144.961,133.598 148.961,131.432 153.5,130C 155.833,129.333 158.167,129.333 160.5,130C 161.823,130.816 162.489,131.983 162.5,133.5 Z"/></g>
<g><path style="opacity:1" fill="#f8e3c0" d="M 125.5,144.5 C 125.631,145.376 125.298,146.043 124.5,146.5C 120.896,147.801 117.563,149.467 114.5,151.5C 117.311,147.922 120.978,145.589 125.5,144.5 Z"/></g>
<g><path style="opacity:1" fill="#f4dbaf" d="M 391.5,159.5 C 389.302,159.12 387.635,159.787 386.5,161.5C 386.167,161.5 385.833,161.5 385.5,161.5C 385.414,160.504 385.748,159.671 386.5,159C 388.387,158.22 390.054,158.387 391.5,159.5 Z"/></g>
<g><path style="opacity:1" fill="#f8e0ba" d="M 107.5,156.5 C 100.526,163.139 93.5264,169.806 86.5,176.5C 92.2098,168.456 99.2098,161.79 107.5,156.5 Z"/></g>
<g><path style="opacity:1" fill="#f6d9ac" d="M 202.5,159.5 C 204.966,158.366 207.633,158.199 210.5,159C 211.252,159.671 211.586,160.504 211.5,161.5C 208.838,159.732 205.838,159.065 202.5,159.5 Z"/></g>
<g><path style="opacity:1" fill="#efc988" d="M 202.5,159.5 C 202.027,160.906 201.027,161.573 199.5,161.5C 199.973,160.094 200.973,159.427 202.5,159.5 Z"/></g>
<g><path style="opacity:1" fill="#f2bf77" d="M 196.5,162.5 C 195.365,164.213 193.698,164.88 191.5,164.5C 192.93,163.463 194.597,162.796 196.5,162.5 Z"/></g>
<g><path style="opacity:1" fill="#f1a026" d="M 391.5,159.5 C 398.692,162.928 405.692,166.595 412.5,170.5C 405.772,168.531 399.272,165.865 393,162.5C 390.901,161.713 388.734,161.38 386.5,161.5C 387.635,159.787 389.302,159.12 391.5,159.5 Z"/></g>
<g><path style="opacity:1" fill="#f1c47f" d="M 191.5,164.5 C 189.853,166.326 187.853,167.66 185.5,168.5C 186.802,166.178 188.802,164.845 191.5,164.5 Z"/></g>
<g><path style="opacity:1" fill="#fa9a0e" d="M 202.5,159.5 C 205.838,159.065 208.838,159.732 211.5,161.5C 213.179,164.762 212.512,167.429 209.5,169.5C 206.088,170.075 203.088,171.408 200.5,173.5C 197.455,174.279 194.789,175.613 192.5,177.5C 190.973,177.427 189.973,178.094 189.5,179.5C 187.973,179.427 186.973,180.094 186.5,181.5C 185.508,181.328 184.842,181.662 184.5,182.5C 182.251,183.08 180.585,184.413 179.5,186.5C 176.911,187.419 174.911,189.086 173.5,191.5C 169.5,193.5 166.5,196.5 164.5,200.5C 162.992,202.181 161.992,204.181 161.5,206.5C 161.088,208.887 160.088,210.887 158.5,212.5C 157.347,218.319 157.181,224.319 158,230.5C 158.424,233.025 159.59,235.025 161.5,236.5C 161.241,238.989 162.241,240.656 164.5,241.5C 164.183,244.546 165.516,246.213 168.5,246.5C 168.833,247.5 169.5,248.167 170.5,248.5C 170.525,251.179 171.858,252.512 174.5,252.5C 174.973,253.906 175.973,254.573 177.5,254.5C 177.525,257.179 178.858,258.512 181.5,258.5C 182.765,260.271 184.265,261.938 186,263.5C 190.382,265.537 194.882,267.204 199.5,268.5C 200.391,269.11 201.391,269.443 202.5,269.5C 204.426,270.486 206.426,271.486 208.5,272.5C 209.219,274.764 209.552,277.097 209.5,279.5C 209.5,280.167 209.167,280.5 208.5,280.5C 205.14,280.384 201.807,280.051 198.5,279.5C 197.833,279.5 197.167,279.5 196.5,279.5C 196.579,278.07 196.246,276.736 195.5,275.5C 188.439,274.257 182.439,271.09 177.5,266C 176.207,265.51 174.873,265.343 173.5,265.5C 173.67,264.178 173.337,263.011 172.5,262C 170.146,261.153 167.812,260.32 165.5,259.5C 164.167,258.5 162.833,257.5 161.5,256.5C 160.581,253.911 158.914,251.911 156.5,250.5C 156.573,248.973 155.906,247.973 154.5,247.5C 154.443,246.391 154.11,245.391 153.5,244.5C 153.379,241.895 152.379,239.895 150.5,238.5C 149.434,236.299 148.767,233.965 148.5,231.5C 148.137,221.744 148.804,212.077 150.5,202.5C 151.857,201.41 152.857,200.076 153.5,198.5C 155.245,196.967 156.245,194.967 156.5,192.5C 160.566,189.437 163.899,185.771 166.5,181.5C 168.749,180.92 170.415,179.587 171.5,177.5C 173.404,177.262 174.738,176.262 175.5,174.5C 175.842,173.662 176.508,173.328 177.5,173.5C 179.404,173.262 180.738,172.262 181.5,170.5C 183.027,170.573 184.027,169.906 184.5,168.5C 184.833,168.5 185.167,168.5 185.5,168.5C 187.853,167.66 189.853,166.326 191.5,164.5C 193.698,164.88 195.365,164.213 196.5,162.5C 197.391,161.89 198.391,161.557 199.5,161.5C 201.027,161.573 202.027,160.906 202.5,159.5 Z"/></g>
<g><path style="opacity:1" fill="#f2c67c" d="M 184.5,168.5 C 184.027,169.906 183.027,170.573 181.5,170.5C 181.973,169.094 182.973,168.427 184.5,168.5 Z"/></g>
<g><path style="opacity:1" fill="#f3bb68" d="M 385.5,168.5 C 388.856,169.611 391.856,171.277 394.5,173.5C 390.716,173.111 387.716,171.444 385.5,168.5 Z"/></g>
<g><path style="opacity:1" fill="#f0bb70" d="M 181.5,170.5 C 180.738,172.262 179.404,173.262 177.5,173.5C 178.262,171.738 179.596,170.738 181.5,170.5 Z"/></g>
<g><path style="opacity:1" fill="#f8dfb9" d="M 209.5,169.5 C 207.165,172.165 204.165,173.498 200.5,173.5C 203.088,171.408 206.088,170.075 209.5,169.5 Z"/></g>
<g><path style="opacity:1" fill="#f5dfb4" d="M 415.5,171.5 C 417.027,171.427 418.027,172.094 418.5,173.5C 416.973,173.573 415.973,172.906 415.5,171.5 Z"/></g>
<g><path style="opacity:1" fill="#f6d8aa" d="M 418.5,173.5 C 420.404,173.738 421.738,174.738 422.5,176.5C 420.596,176.262 419.262,175.262 418.5,173.5 Z"/></g>
<g><path style="opacity:1" fill="#f9ecd8" d="M 489.5,172.5 C 493.515,175.516 496.848,179.183 499.5,183.5C 495.456,180.457 492.123,176.791 489.5,172.5 Z"/></g>
<g><path style="opacity:1" fill="#f0bd71" d="M 175.5,174.5 C 174.738,176.262 173.404,177.262 171.5,177.5C 172.262,175.738 173.596,174.738 175.5,174.5 Z"/></g>
<g><path style="opacity:1" fill="#f6d9ac" d="M 200.5,173.5 C 198.469,175.755 195.802,177.088 192.5,177.5C 194.789,175.613 197.455,174.279 200.5,173.5 Z"/></g>
<g><path style="opacity:1" fill="#efb966" d="M 399.5,175.5 C 401.027,175.427 402.027,176.094 402.5,177.5C 400.973,177.573 399.973,176.906 399.5,175.5 Z"/></g>
<g><path style="opacity:1" fill="#f8d9ae" d="M 422.5,176.5 C 424.404,176.738 425.738,177.738 426.5,179.5C 424.596,179.262 423.262,178.262 422.5,176.5 Z"/></g>
<g><path style="opacity:1" fill="#f5d6a1" d="M 192.5,177.5 C 192.027,178.906 191.027,179.573 189.5,179.5C 189.973,178.094 190.973,177.427 192.5,177.5 Z"/></g>
<g><path style="opacity:1" fill="#ecba65" d="M 171.5,177.5 C 170.415,179.587 168.749,180.92 166.5,181.5C 167.585,179.413 169.251,178.08 171.5,177.5 Z"/></g>
<g><path style="opacity:1" fill="#f8dab1" d="M 189.5,179.5 C 189.027,180.906 188.027,181.573 186.5,181.5C 186.973,180.094 187.973,179.427 189.5,179.5 Z"/></g>
<g><path style="opacity:1" fill="#efb862" d="M 406.5,179.5 C 408.027,179.427 409.027,180.094 409.5,181.5C 407.973,181.573 406.973,180.906 406.5,179.5 Z"/></g>
<g><path style="opacity:1" fill="#f3bc6d" d="M 409.5,181.5 C 411.027,181.427 412.027,182.094 412.5,183.5C 410.973,183.573 409.973,182.906 409.5,181.5 Z"/></g>
<g><path style="opacity:1" fill="#f9e6c7" d="M 428.5,181.5 C 431.179,181.525 432.512,182.858 432.5,185.5C 430.833,184.5 429.5,183.167 428.5,181.5 Z"/></g>
<g><path style="opacity:1" fill="#fa9a0e" d="M 385.5,161.5 C 385.833,161.5 386.167,161.5 386.5,161.5C 388.734,161.38 390.901,161.713 393,162.5C 399.272,165.865 405.772,168.531 412.5,170.5C 413.391,171.11 414.391,171.443 415.5,171.5C 415.973,172.906 416.973,173.573 418.5,173.5C 419.262,175.262 420.596,176.262 422.5,176.5C 423.262,178.262 424.596,179.262 426.5,179.5C 426.833,180.5 427.5,181.167 428.5,181.5C 429.5,183.167 430.833,184.5 432.5,185.5C 434.471,187.808 436.471,190.142 438.5,192.5C 439.951,199.372 442.451,205.705 446,211.5C 446.494,220.226 445.994,228.893 444.5,237.5C 443.637,239.421 442.971,241.421 442.5,243.5C 441.662,243.842 441.328,244.508 441.5,245.5C 439.347,248.559 437.013,251.559 434.5,254.5C 432.167,256.167 430.167,258.167 428.5,260.5C 427.167,261.167 426.167,262.167 425.5,263.5C 423.973,263.427 422.973,264.094 422.5,265.5C 421.29,265.932 420.29,266.599 419.5,267.5C 417.973,267.427 416.973,268.094 416.5,269.5C 414.973,269.427 413.973,270.094 413.5,271.5C 411.973,271.427 410.973,272.094 410.5,273.5C 408.847,273.66 407.514,274.326 406.5,275.5C 404.973,275.427 403.973,276.094 403.5,277.5C 401.883,278.038 400.216,278.371 398.5,278.5C 395.482,278.296 392.482,277.963 389.5,277.5C 389.772,273.336 392.106,271.503 396.5,272C 397.296,269.398 398.629,267.232 400.5,265.5C 402.027,265.573 403.027,264.906 403.5,263.5C 404.609,263.443 405.609,263.11 406.5,262.5C 408.027,262.573 409.027,261.906 409.5,260.5C 409.842,259.662 410.508,259.328 411.5,259.5C 413.404,259.262 414.738,258.262 415.5,256.5C 415.973,255.094 416.973,254.427 418.5,254.5C 423.578,251.757 427.245,247.757 429.5,242.5C 429.328,241.508 429.662,240.842 430.5,240.5C 431.167,240.167 431.833,239.833 432.5,239.5C 433.794,238.71 434.961,237.71 436,236.5C 438.623,228.052 439.123,219.385 437.5,210.5C 436.735,209.388 435.735,208.721 434.5,208.5C 434.34,206.847 433.674,205.514 432.5,204.5C 432.573,202.973 431.906,201.973 430.5,201.5C 430.262,199.596 429.262,198.262 427.5,197.5C 426.581,194.911 424.914,192.911 422.5,191.5C 419.455,188.453 416.122,185.787 412.5,183.5C 412.027,182.094 411.027,181.427 409.5,181.5C 409.027,180.094 408.027,179.427 406.5,179.5C 404.847,179.34 403.514,178.674 402.5,177.5C 402.027,176.094 401.027,175.427 399.5,175.5C 397.716,175.107 396.05,174.441 394.5,173.5C 391.856,171.277 388.856,169.611 385.5,168.5C 384.167,166.167 384.167,163.833 385.5,161.5 Z"/></g>
<g><path style="opacity:1" fill="#fcd69c" d="M 162.5,133.5 C 162.822,135.722 162.155,137.556 160.5,139C 135.47,148.604 113.637,163.104 95,182.5C 94.1534,184.193 93.3201,185.86 92.5,187.5C 91.4168,187.539 90.4168,187.873 89.5,188.5C 87.9556,191.356 86.9556,194.356 86.5,197.5C 86.2041,199.403 85.5375,201.07 84.5,202.5C 83.2237,204.562 82.3903,206.896 82,209.5C 81.184,218.879 81.5173,228.213 83,237.5C 83.3736,239.491 84.207,241.158 85.5,242.5C 90.7199,253.713 98.0533,263.546 107.5,272C 120.734,282.934 135.067,291.767 150.5,298.5C 152.917,299.774 155.25,301.274 157.5,303C 159.648,305.075 159.982,307.408 158.5,310C 155.445,310.634 152.445,310.468 149.5,309.5C 147.685,308.37 145.685,307.704 143.5,307.5C 143.063,305.926 142.063,304.759 140.5,304C 137.588,303.725 134.921,302.891 132.5,301.5C 128.738,298.253 124.738,295.086 120.5,292C 119.207,291.51 117.873,291.343 116.5,291.5C 97.9885,281.158 84.1551,266.491 75,247.5C 74.1626,243.486 73.3292,239.486 72.5,235.5C 70.6188,222.63 71.2855,209.963 74.5,197.5C 74.8333,196.167 75.1667,194.833 75.5,193.5C 76.5,193.5 77.5,193.5 78.5,193.5C 81.1659,187.834 83.8326,182.167 86.5,176.5C 93.5264,169.806 100.526,163.139 107.5,156.5C 109.55,154.453 111.883,152.786 114.5,151.5C 117.563,149.467 120.896,147.801 124.5,146.5C 125.298,146.043 125.631,145.376 125.5,144.5C 130.239,140.797 135.573,138.13 141.5,136.5C 144.127,135.895 146.793,135.395 149.5,135C 150.337,133.989 150.67,132.822 150.5,131.5C 154.813,130.99 158.813,131.657 162.5,133.5 Z"/></g>
<g><path style="opacity:1" fill="#fae3c2" d="M 184.5,182.5 C 183.415,184.587 181.749,185.92 179.5,186.5C 180.585,184.413 182.251,183.08 184.5,182.5 Z"/></g>
<g><path style="opacity:1" fill="#f7deb7" d="M 86.5,176.5 C 83.8326,182.167 81.1659,187.834 78.5,193.5C 77.5,193.5 76.5,193.5 75.5,193.5C 77.7417,188.742 80.2417,184.075 83,179.5C 84.0391,178.29 85.2058,177.29 86.5,176.5 Z"/></g>
<g><path style="opacity:1" fill="#ebb763" d="M 166.5,181.5 C 163.899,185.771 160.566,189.437 156.5,192.5C 159.101,188.229 162.434,184.563 166.5,181.5 Z"/></g>
<g><path style="opacity:1" fill="#f5d7a7" d="M 173.5,191.5 C 170.833,194.833 167.833,197.833 164.5,200.5C 166.5,196.5 169.5,193.5 173.5,191.5 Z"/></g>
<g><path style="opacity:1" fill="#efc075" d="M 252.5,190.5 C 251.41,191.857 250.076,192.857 248.5,193.5C 247.833,193.5 247.167,193.5 246.5,193.5C 248.033,191.755 250.033,190.755 252.5,190.5 Z"/></g>
<g><path style="opacity:1" fill="#eba844" d="M 342.5,191.5 C 335.741,191.233 334.074,193.9 337.5,199.5C 335.938,199.267 334.605,198.6 333.5,197.5C 333.253,195.142 333.919,193.142 335.5,191.5C 336.134,190.053 337.301,189.387 339,189.5C 340.699,189.387 341.866,190.053 342.5,191.5 Z"/></g>
<g><path style="opacity:1" fill="#f5d29e" d="M 422.5,191.5 C 424.914,192.911 426.581,194.911 427.5,197.5C 425.086,196.089 423.419,194.089 422.5,191.5 Z"/></g>
<g><path style="opacity:1" fill="#f9e3c2" d="M 92.5,187.5 C 90.4721,190.902 88.4721,194.235 86.5,197.5C 86.9556,194.356 87.9556,191.356 89.5,188.5C 90.4168,187.873 91.4168,187.539 92.5,187.5 Z"/></g>
<g><path style="opacity:1" fill="#f6e2c1" d="M 335.5,191.5 C 333.919,193.142 333.253,195.142 333.5,197.5C 332.387,196.054 332.22,194.387 333,192.5C 333.671,191.748 334.504,191.414 335.5,191.5 Z"/></g>
<g><path style="opacity:1" fill="#f1cf95" d="M 245.5,193.5 C 245.027,194.906 244.027,195.573 242.5,195.5C 242.973,194.094 243.973,193.427 245.5,193.5 Z"/></g>
<g><path style="opacity:1" fill="#f3deb3" d="M 259.5,189.5 C 261.017,189.511 262.184,190.177 263,191.5C 263.789,193.712 263.622,195.712 262.5,197.5C 262.984,194.212 261.984,191.545 259.5,189.5 Z"/></g>
<g><path style="opacity:1" fill="#efab48" d="M 156.5,192.5 C 156.245,194.967 155.245,196.967 153.5,198.5C 153.5,197.833 153.5,197.167 153.5,196.5C 153.738,194.596 154.738,193.262 156.5,192.5 Z"/></g>
<g><path style="opacity:1" fill="#f4daab" d="M 355.5,197.5 C 358.089,198.419 360.089,200.086 361.5,202.5C 361.167,202.5 360.833,202.5 360.5,202.5C 358.5,201.167 356.833,199.5 355.5,197.5 Z"/></g>
<g><path style="opacity:1" fill="#ebb258" d="M 240.5,197.5 C 239.415,199.587 237.749,200.92 235.5,201.5C 236.585,199.413 238.251,198.08 240.5,197.5 Z"/></g>
<g><path style="opacity:1" fill="#f2a01d" d="M 259.5,189.5 C 261.984,191.545 262.984,194.212 262.5,197.5C 259.953,198.934 257.619,200.6 255.5,202.5C 253.447,202.402 251.78,203.069 250.5,204.5C 248.973,204.427 247.973,205.094 247.5,206.5C 247.167,206.5 246.833,206.5 246.5,206.5C 246.5,205.167 246.5,203.833 246.5,202.5C 251.151,201.74 255.484,200.074 259.5,197.5C 259.023,196.522 258.357,195.689 257.5,195C 258.337,193.989 258.67,192.822 258.5,191.5C 254.71,191.008 254.044,191.841 256.5,194C 255.975,194.692 255.308,195.192 254.5,195.5C 252.821,193.896 250.821,193.229 248.5,193.5C 250.076,192.857 251.41,191.857 252.5,190.5C 254.717,189.631 257.05,189.298 259.5,189.5 Z"/></g>
<g><path style="opacity:1" fill="#f8e1bf" d="M 262.5,197.5 C 261.514,200.76 259.181,202.427 255.5,202.5C 257.619,200.6 259.953,198.934 262.5,197.5 Z"/></g>
<g><path style="opacity:1" fill="#efca87" d="M 333.5,197.5 C 334.605,198.6 335.938,199.267 337.5,199.5C 337.833,200.167 338.167,200.833 338.5,201.5C 335.796,201.33 334.129,199.997 333.5,197.5 Z"/></g>
<g><path style="opacity:1" fill="#fcd69d" d="M 441.5,131.5 C 467.783,141.413 490.617,156.747 510,177.5C 513.965,183.114 517.465,188.948 520.5,195C 522.53,200.685 523.864,206.518 524.5,212.5C 524.745,221.249 524.078,229.915 522.5,238.5C 521.775,240.947 521.108,243.447 520.5,246C 518.531,250.441 516.198,254.607 513.5,258.5C 511.734,260.771 509.734,262.937 507.5,265C 506.451,265.492 505.451,265.326 504.5,264.5C 503.534,266.396 503.201,268.396 503.5,270.5C 494.718,280.281 484.718,288.614 473.5,295.5C 470.293,296.179 467.293,297.346 464.5,299C 463.748,299.671 463.414,300.504 463.5,301.5C 462.127,301.343 460.793,301.51 459.5,302C 454.988,305.856 449.988,308.69 444.5,310.5C 438.504,311.667 436.004,309.334 437,303.5C 438.376,302.295 439.542,300.962 440.5,299.5C 447.065,296.946 453.398,293.946 459.5,290.5C 462.407,290.425 465.073,289.591 467.5,288C 471.076,285.242 474.409,282.409 477.5,279.5C 481.363,278.306 484.363,275.973 486.5,272.5C 490.905,269.604 494.905,266.104 498.5,262C 499.448,261.517 500.448,261.351 501.5,261.5C 501.5,259.833 501.5,258.167 501.5,256.5C 504.309,251.555 507.143,246.555 510,241.5C 511.477,237.571 512.644,233.571 513.5,229.5C 514.165,226.686 514.498,223.686 514.5,220.5C 514.646,215.576 513.979,210.909 512.5,206.5C 509.708,201.841 507.541,196.841 506,191.5C 503.621,188.959 501.454,186.293 499.5,183.5C 496.848,179.183 493.515,175.516 489.5,172.5C 483.556,167.19 477.223,162.357 470.5,158C 462.979,153.937 455.646,149.77 448.5,145.5C 444.813,142.5 440.813,139.834 436.5,137.5C 434.439,132.555 436.105,130.555 441.5,131.5 Z"/></g>
<g><path style="opacity:1" fill="#ecc175" d="M 153.5,196.5 C 153.5,197.167 153.5,197.833 153.5,198.5C 152.857,200.076 151.857,201.41 150.5,202.5C 150.755,200.033 151.755,198.033 153.5,196.5 Z"/></g>
<g><path style="opacity:1" fill="#f99b10" d="M 246.5,206.5 C 243.097,208.9 240.43,211.9 238.5,215.5C 237.126,219.838 237.459,224.171 239.5,228.5C 239.427,230.027 240.094,231.027 241.5,231.5C 242.167,231.833 242.833,232.167 243.5,232.5C 244.585,234.587 246.251,235.92 248.5,236.5C 250.833,237.833 253.167,239.167 255.5,240.5C 256.5,241.167 257.5,241.833 258.5,242.5C 258.5,244.833 258.5,247.167 258.5,249.5C 255.833,249.5 253.167,249.5 250.5,249.5C 250.5,248.5 250.5,247.5 250.5,246.5C 248.833,246.5 247.167,246.5 245.5,246.5C 244.833,246.5 244.167,246.5 243.5,246.5C 243.167,246.5 242.833,246.5 242.5,246.5C 241.089,244.086 239.089,242.419 236.5,241.5C 233.394,239.402 231.061,236.735 229.5,233.5C 229.573,231.973 228.906,230.973 227.5,230.5C 226.962,228.883 226.629,227.216 226.5,225.5C 225.838,219.437 227.004,213.77 230,208.5C 232.454,206.559 234.287,204.225 235.5,201.5C 237.749,200.92 239.415,199.587 240.5,197.5C 240.833,196.5 241.5,195.833 242.5,195.5C 244.027,195.573 245.027,194.906 245.5,193.5C 245.833,193.5 246.167,193.5 246.5,193.5C 247.167,193.5 247.833,193.5 248.5,193.5C 250.821,193.229 252.821,193.896 254.5,195.5C 255.308,195.192 255.975,194.692 256.5,194C 254.044,191.841 254.71,191.008 258.5,191.5C 258.67,192.822 258.337,193.989 257.5,195C 258.357,195.689 259.023,196.522 259.5,197.5C 255.484,200.074 251.151,201.74 246.5,202.5C 246.5,203.833 246.5,205.167 246.5,206.5 Z"/></g>
<g><path style="opacity:1" fill="#fa9a0e" d="M 342.5,191.5 C 346.984,193.243 351.317,195.243 355.5,197.5C 356.833,199.5 358.5,201.167 360.5,202.5C 361.08,204.749 362.413,206.415 364.5,207.5C 365.338,207.842 365.672,208.508 365.5,209.5C 366.004,213.185 366.67,216.851 367.5,220.5C 366.507,223.823 365.507,227.157 364.5,230.5C 363.808,229.975 363.308,229.308 363,228.5C 362.25,229.126 361.416,229.626 360.5,230C 362.229,231.789 362.896,233.956 362.5,236.5C 361.4,237.605 360.733,238.938 360.5,240.5C 357.545,242.122 354.878,244.122 352.5,246.5C 350.181,246.992 348.181,247.992 346.5,249.5C 343.57,250.299 340.57,250.632 337.5,250.5C 337.167,249.833 336.833,249.167 336.5,248.5C 336.34,246.801 336.506,245.134 337,243.5C 338.936,241.746 340.77,240.079 342.5,238.5C 345.014,238.246 347.348,237.413 349.5,236C 351.141,234.871 352.141,233.371 352.5,231.5C 353.167,230.833 353.833,230.167 354.5,229.5C 355.906,229.027 356.573,228.027 356.5,226.5C 357.643,223.024 357.81,219.358 357,215.5C 355.961,214.29 354.794,213.29 353.5,212.5C 353.573,210.973 352.906,209.973 351.5,209.5C 350.5,209.167 349.833,208.5 349.5,207.5C 349.027,206.094 348.027,205.427 346.5,205.5C 343.795,204.147 341.128,202.814 338.5,201.5C 338.167,200.833 337.833,200.167 337.5,199.5C 334.074,193.9 335.741,191.233 342.5,191.5 Z"/></g>
<g><path style="opacity:1" fill="#eeb558" d="M 360.5,202.5 C 360.833,202.5 361.167,202.5 361.5,202.5C 362.925,203.922 363.925,205.589 364.5,207.5C 362.413,206.415 361.08,204.749 360.5,202.5 Z"/></g>
<g><path style="opacity:1" fill="#f5d096" d="M 430.5,201.5 C 431.906,201.973 432.573,202.973 432.5,204.5C 431.094,204.027 430.427,203.027 430.5,201.5 Z"/></g>
<g><path style="opacity:1" fill="#fae5c4" d="M 164.5,200.5 C 164.969,203.393 163.969,205.393 161.5,206.5C 161.992,204.181 162.992,202.181 164.5,200.5 Z"/></g>
<g><path style="opacity:1" fill="#f1d4a1" d="M 250.5,204.5 C 250.027,205.906 249.027,206.573 247.5,206.5C 247.973,205.094 248.973,204.427 250.5,204.5 Z"/></g>
<g><path style="opacity:1" fill="#efb85b" d="M 346.5,205.5 C 348.027,205.427 349.027,206.094 349.5,207.5C 347.973,207.573 346.973,206.906 346.5,205.5 Z"/></g>
<g><path style="opacity:1" fill="#fadfb7" d="M 246.5,206.5 C 246.833,206.5 247.167,206.5 247.5,206.5C 244.833,209.833 241.833,212.833 238.5,215.5C 240.43,211.9 243.097,208.9 246.5,206.5 Z"/></g>
<g><path style="opacity:1" fill="#f7d9ab" d="M 351.5,209.5 C 352.906,209.973 353.573,210.973 353.5,212.5C 352.094,212.027 351.427,211.027 351.5,209.5 Z"/></g>
<g><path style="opacity:1" fill="#f4d299" d="M 148.5,206.5 C 147.629,214.8 147.295,223.133 147.5,231.5C 146.345,224.345 146.178,217.012 147,209.5C 147.232,208.263 147.732,207.263 148.5,206.5 Z"/></g>
<g><path style="opacity:1" fill="#edba67" d="M 235.5,201.5 C 234.287,204.225 232.454,206.559 230,208.5C 227.004,213.77 225.838,219.437 226.5,225.5C 223.936,215.537 226.936,207.537 235.5,201.5 Z"/></g>
<g><path style="opacity:1" fill="#f8e0b8" d="M 74.5,197.5 C 71.2855,209.963 70.6188,222.63 72.5,235.5C 71.8826,235.389 71.3826,235.056 71,234.5C 69.0364,224.839 69.0364,215.173 71,205.5C 71.7048,202.524 72.8714,199.858 74.5,197.5 Z"/></g>
<g><path style="opacity:1" fill="#fbf0dd" d="M 84.5,202.5 C 81.8392,215.92 82.1725,229.253 85.5,242.5C 84.207,241.158 83.3736,239.491 83,237.5C 81.5173,228.213 81.184,218.879 82,209.5C 82.3903,206.896 83.2237,204.562 84.5,202.5 Z"/></g>
<g><path style="opacity:1" fill="#f8e4c3" d="M 512.5,206.5 C 513.979,210.909 514.646,215.576 514.5,220.5C 514.498,223.686 514.165,226.686 513.5,229.5C 513.477,221.817 513.143,214.15 512.5,206.5 Z"/></g>
<g><path style="opacity:1" fill="#f0a431" d="M 150.5,202.5 C 148.804,212.077 148.137,221.744 148.5,231.5C 148.167,231.5 147.833,231.5 147.5,231.5C 147.295,223.133 147.629,214.8 148.5,206.5C 148.989,205.005 149.655,203.671 150.5,202.5 Z"/></g>
<g><path style="opacity:1" fill="#9db3c2" d="M 301.5,217.5 C 300.5,217.5 299.5,217.5 298.5,217.5C 298.716,222.587 296.882,223.587 293,220.5C 292.252,222.84 292.752,224.84 294.5,226.5C 293.504,226.586 292.671,226.252 292,225.5C 289.96,219.648 291.96,216.315 298,215.5C 299.699,215.387 300.866,216.053 301.5,217.5 Z"/></g>
<g><path style="opacity:1" fill="#f9edd8" d="M 524.5,212.5 C 525.652,217.985 525.818,223.651 525,229.5C 524.943,232.851 524.109,235.851 522.5,238.5C 524.078,229.915 524.745,221.249 524.5,212.5 Z"/></g>
<g><path style="opacity:1" fill="#f0a73a" d="M 438.5,192.5 C 448.889,206.094 451.223,221.094 445.5,237.5C 445.167,237.5 444.833,237.5 444.5,237.5C 445.994,228.893 446.494,220.226 446,211.5C 442.451,205.705 439.951,199.372 438.5,192.5 Z"/></g>
<g><path style="opacity:1" fill="#faecd2" d="M 432.5,204.5 C 433.674,205.514 434.34,206.847 434.5,208.5C 436.6,214.867 436.933,221.2 435.5,227.5C 435.666,223.154 435.499,218.821 435,214.5C 433.539,211.321 432.705,207.988 432.5,204.5 Z"/></g>
<g><path style="opacity:1" fill="#55748b" d="M 301.5,217.5 C 304.545,221.609 303.878,224.942 299.5,227.5C 298.167,227.167 296.833,226.833 295.5,226.5C 295.167,226.5 294.833,226.5 294.5,226.5C 292.752,224.84 292.252,222.84 293,220.5C 296.882,223.587 298.716,222.587 298.5,217.5C 299.5,217.5 300.5,217.5 301.5,217.5 Z"/></g>
<g><path style="opacity:1" fill="#f2a431" d="M 434.5,208.5 C 435.735,208.721 436.735,209.388 437.5,210.5C 439.123,219.385 438.623,228.052 436,236.5C 434.961,237.71 433.794,238.71 432.5,239.5C 433.038,237.883 433.371,236.216 433.5,234.5C 434.924,232.485 435.59,230.152 435.5,227.5C 436.933,221.2 436.6,214.867 434.5,208.5 Z"/></g>
<g><path style="opacity:1" fill="#efc582" d="M 356.5,226.5 C 356.573,228.027 355.906,229.027 354.5,229.5C 354.427,227.973 355.094,226.973 356.5,226.5 Z"/></g>
<g><path style="opacity:1" fill="#f3a026" d="M 365.5,209.5 C 366.558,210.6 367.392,211.934 368,213.5C 368.499,217.821 368.666,222.154 368.5,226.5C 366.93,229.314 365.597,232.314 364.5,235.5C 363.833,235.833 363.167,236.167 362.5,236.5C 362.896,233.956 362.229,231.789 360.5,230C 361.416,229.626 362.25,229.126 363,228.5C 363.308,229.308 363.808,229.975 364.5,230.5C 365.507,227.157 366.507,223.823 367.5,220.5C 366.67,216.851 366.004,213.185 365.5,209.5 Z"/></g>
<g><path style="opacity:1" fill="#f2af4a" d="M 158.5,212.5 C 157.787,220.781 158.787,228.781 161.5,236.5C 159.59,235.025 158.424,233.025 158,230.5C 157.181,224.319 157.347,218.319 158.5,212.5 Z"/></g>
<g><path style="opacity:1" fill="#f4c171" d="M 239.5,228.5 C 240.906,228.973 241.573,229.973 241.5,231.5C 240.094,231.027 239.427,230.027 239.5,228.5 Z"/></g>
<g><path style="opacity:1" fill="#f2c786" d="M 227.5,230.5 C 228.906,230.973 229.573,231.973 229.5,233.5C 228.094,233.027 227.427,232.027 227.5,230.5 Z"/></g>
<g><path style="opacity:1" fill="#f9dfbb" d="M 368.5,226.5 C 368.674,230.36 367.341,233.36 364.5,235.5C 365.597,232.314 366.93,229.314 368.5,226.5 Z"/></g>
<g><path style="opacity:1" fill="#f7daae" d="M 243.5,232.5 C 245.749,233.08 247.415,234.413 248.5,236.5C 246.251,235.92 244.585,234.587 243.5,232.5 Z"/></g>
<g><path style="opacity:1" fill="#f0b65c" d="M 352.5,231.5 C 352.141,233.371 351.141,234.871 349.5,236C 347.348,237.413 345.014,238.246 342.5,238.5C 346.029,236.531 349.362,234.198 352.5,231.5 Z"/></g>
<g><path style="opacity:1" fill="#f8d6a4" d="M 433.5,234.5 C 433.371,236.216 433.038,237.883 432.5,239.5C 431.833,239.833 431.167,240.167 430.5,240.5C 430.992,238.181 431.992,236.181 433.5,234.5 Z"/></g>
<g><path style="opacity:1" fill="#f6d09a" d="M 364.5,235.5 C 363.92,237.749 362.587,239.415 360.5,240.5C 360.733,238.938 361.4,237.605 362.5,236.5C 363.167,236.167 363.833,235.833 364.5,235.5 Z"/></g>
<g><path style="opacity:1" fill="#fae4c4" d="M 147.5,231.5 C 147.833,231.5 148.167,231.5 148.5,231.5C 148.767,233.965 149.434,236.299 150.5,238.5C 150.5,238.833 150.5,239.167 150.5,239.5C 149.883,239.611 149.383,239.944 149,240.5C 148.304,237.522 147.804,234.522 147.5,231.5 Z"/></g>
<g><path style="opacity:1" fill="#f4aa45" d="M 161.5,236.5 C 162.89,237.899 163.89,239.566 164.5,241.5C 162.241,240.656 161.241,238.989 161.5,236.5 Z"/></g>
<g><path style="opacity:1" fill="#f6daaf" d="M 255.5,240.5 C 258.285,239.916 259.952,240.916 260.5,243.5C 259.833,243.167 259.167,242.833 258.5,242.5C 257.5,241.833 256.5,241.167 255.5,240.5 Z"/></g>
<g><path style="opacity:1" fill="#eab459" d="M 342.5,238.5 C 340.77,240.079 338.936,241.746 337,243.5C 336.506,245.134 336.34,246.801 336.5,248.5C 334.527,243.084 336.527,239.75 342.5,238.5 Z"/></g>
<g><path style="opacity:1" fill="#efba64" d="M 236.5,241.5 C 239.089,242.419 241.089,244.086 242.5,246.5C 239.911,245.581 237.911,243.914 236.5,241.5 Z"/></g>
<g><path style="opacity:1" fill="#f6d49f" d="M 444.5,237.5 C 444.833,237.5 445.167,237.5 445.5,237.5C 445.245,239.967 444.245,241.967 442.5,243.5C 442.971,241.421 443.637,239.421 444.5,237.5 Z"/></g>
<g><path style="opacity:1" fill="#efb55d" d="M 150.5,238.5 C 152.379,239.895 153.379,241.895 153.5,244.5C 153.167,244.5 152.833,244.5 152.5,244.5C 151.559,242.95 150.893,241.284 150.5,239.5C 150.5,239.167 150.5,238.833 150.5,238.5 Z"/></g>
<g><path style="opacity:1" fill="#f8e0ba" d="M 360.5,240.5 C 358.687,243.647 356.02,245.647 352.5,246.5C 354.878,244.122 357.545,242.122 360.5,240.5 Z"/></g>
<g><path style="opacity:1" fill="#f1ab4c" d="M 164.5,241.5 C 165.803,243.142 167.136,244.809 168.5,246.5C 165.516,246.213 164.183,244.546 164.5,241.5 Z"/></g>
<g><path style="opacity:1" fill="#f7daaf" d="M 152.5,244.5 C 152.833,244.5 153.167,244.5 153.5,244.5C 154.11,245.391 154.443,246.391 154.5,247.5C 153.094,247.027 152.427,246.027 152.5,244.5 Z"/></g>
<g><path style="opacity:1" fill="#efb766" d="M 243.5,246.5 C 244.167,246.5 244.833,246.5 245.5,246.5C 245.833,247.167 246.167,247.833 246.5,248.5C 244.973,248.573 243.973,247.906 243.5,246.5 Z"/></g>
<g><path style="opacity:1" fill="#f0a537" d="M 258.5,242.5 C 259.167,242.833 259.833,243.167 260.5,243.5C 261.617,248.699 259.617,251.699 254.5,252.5C 251.601,251.444 248.934,250.11 246.5,248.5C 246.167,247.833 245.833,247.167 245.5,246.5C 247.167,246.5 248.833,246.5 250.5,246.5C 250.5,247.5 250.5,248.5 250.5,249.5C 253.167,249.5 255.833,249.5 258.5,249.5C 258.5,247.167 258.5,244.833 258.5,242.5 Z"/></g>
<g><path style="opacity:1" fill="#f2d9ad" d="M 346.5,249.5 C 345.126,251.378 343.126,252.378 340.5,252.5C 338.962,252.547 337.962,251.88 337.5,250.5C 340.57,250.632 343.57,250.299 346.5,249.5 Z"/></g>
<g><path style="opacity:1" fill="#f9dfbb" d="M 441.5,245.5 C 440.75,249.803 438.416,252.803 434.5,254.5C 437.013,251.559 439.347,248.559 441.5,245.5 Z"/></g>
<g><path style="opacity:1" fill="#f8dbb1" d="M 156.5,250.5 C 158.914,251.911 160.581,253.911 161.5,256.5C 159.086,255.089 157.419,253.089 156.5,250.5 Z"/></g>
<g><path style="opacity:1" fill="#eeaf49" d="M 170.5,248.5 C 172.167,249.5 173.5,250.833 174.5,252.5C 171.858,252.512 170.525,251.179 170.5,248.5 Z"/></g>
<g><path style="opacity:1" fill="#eeb760" d="M 429.5,242.5 C 427.245,247.757 423.578,251.757 418.5,254.5C 422.145,250.52 425.811,246.52 429.5,242.5 Z"/></g>
<g><path style="opacity:1" fill="#f6d197" d="M 174.5,252.5 C 176.027,252.427 177.027,253.094 177.5,254.5C 175.973,254.573 174.973,253.906 174.5,252.5 Z"/></g>
<g><path style="opacity:1" fill="#efb052" d="M 177.5,254.5 C 178.872,255.512 180.205,256.512 181.5,257.5C 181.5,257.833 181.5,258.167 181.5,258.5C 178.858,258.512 177.525,257.179 177.5,254.5 Z"/></g>
<g><path style="opacity:1" fill="#acb8c2" d="M 295.5,226.5 C 296.833,226.833 298.167,227.167 299.5,227.5C 298.348,245.426 298.181,263.426 299,281.5C 300.912,282.692 302.912,283.692 305,284.5C 305.49,285.793 305.657,287.127 305.5,288.5C 304.531,284.615 302.197,283.615 298.5,285.5C 296.139,285.326 293.806,284.993 291.5,284.5C 292.78,283.069 294.447,282.402 296.5,282.5C 296.82,263.757 296.486,245.09 295.5,226.5 Z"/></g>
<g><path style="opacity:1" fill="#f1bc6c" d="M 415.5,256.5 C 414.738,258.262 413.404,259.262 411.5,259.5C 412.262,257.738 413.596,256.738 415.5,256.5 Z"/></g>
<g><path style="opacity:1" fill="#f8d6a0" d="M 181.5,258.5 C 181.5,258.167 181.5,257.833 181.5,257.5C 183.027,257.427 184.027,258.094 184.5,259.5C 183.391,259.443 182.391,259.11 181.5,258.5 Z"/></g>
<g><path style="opacity:1" fill="#f4d6a4" d="M 434.5,254.5 C 433.5,257.5 431.5,259.5 428.5,260.5C 430.167,258.167 432.167,256.167 434.5,254.5 Z"/></g>
<g><path style="opacity:1" fill="#f9e5c5" d="M 165.5,260.5 C 167.754,261.124 169.421,262.457 170.5,264.5C 168.205,263.864 166.539,262.531 165.5,260.5 Z"/></g>
<g><path style="opacity:1" fill="#f1a42d" d="M 165.5,260.5 C 165.5,260.167 165.5,259.833 165.5,259.5C 167.812,260.32 170.146,261.153 172.5,262C 173.337,263.011 173.67,264.178 173.5,265.5C 172.391,265.443 171.391,265.11 170.5,264.5C 169.421,262.457 167.754,261.124 165.5,260.5 Z"/></g>
<g><path style="opacity:1" fill="#f8dbaf" d="M 186.5,260.5 C 188.404,260.738 189.738,261.738 190.5,263.5C 188.596,263.262 187.262,262.262 186.5,260.5 Z"/></g>
<g><path style="opacity:1" fill="#f1c077" d="M 409.5,260.5 C 409.027,261.906 408.027,262.573 406.5,262.5C 406.973,261.094 407.973,260.427 409.5,260.5 Z"/></g>
<g><path style="opacity:1" fill="#f2a431" d="M 181.5,258.5 C 182.391,259.11 183.391,259.443 184.5,259.5C 184.842,260.338 185.508,260.672 186.5,260.5C 187.262,262.262 188.596,263.262 190.5,263.5C 193.289,265.211 196.289,266.545 199.5,267.5C 199.5,267.833 199.5,268.167 199.5,268.5C 194.882,267.204 190.382,265.537 186,263.5C 184.265,261.938 182.765,260.271 181.5,258.5 Z"/></g>
<g><path style="opacity:1" fill="#f3cd93" d="M 403.5,263.5 C 403.027,264.906 402.027,265.573 400.5,265.5C 400.973,264.094 401.973,263.427 403.5,263.5 Z"/></g>
<g><path style="opacity:1" fill="#f7dbab" d="M 425.5,263.5 C 425.027,264.906 424.027,265.573 422.5,265.5C 422.973,264.094 423.973,263.427 425.5,263.5 Z"/></g>
<g><path style="opacity:1" fill="#f9deb0" d="M 513.5,258.5 C 511.291,263.381 507.957,267.381 503.5,270.5C 503.201,268.396 503.534,266.396 504.5,264.5C 505.451,265.326 506.451,265.492 507.5,265C 509.734,262.937 511.734,260.771 513.5,258.5 Z"/></g>
<g><path style="opacity:1" fill="#f5d7a2" d="M 199.5,268.5 C 199.5,268.167 199.5,267.833 199.5,267.5C 201.027,267.427 202.027,268.094 202.5,269.5C 201.391,269.443 200.391,269.11 199.5,268.5 Z"/></g>
<g><path style="opacity:1" fill="#f3d6a3" d="M 419.5,267.5 C 419.027,268.906 418.027,269.573 416.5,269.5C 416.973,268.094 417.973,267.427 419.5,267.5 Z"/></g>
<g><path style="opacity:1" fill="#f7e1ba" d="M 501.5,256.5 C 501.5,258.167 501.5,259.833 501.5,261.5C 500.448,261.351 499.448,261.517 498.5,262C 494.905,266.104 490.905,269.604 486.5,272.5C 491.528,267.14 496.528,261.807 501.5,256.5 Z"/></g>
<g><path style="opacity:1" fill="#eec07a" d="M 391.5,269.5 C 390.738,271.262 389.404,272.262 387.5,272.5C 388.262,270.738 389.596,269.738 391.5,269.5 Z"/></g>
<g><path style="opacity:1" fill="#f3d59d" d="M 416.5,269.5 C 416.027,270.906 415.027,271.573 413.5,271.5C 413.973,270.094 414.973,269.427 416.5,269.5 Z"/></g>
<g><path style="opacity:1" fill="#f49f1b" d="M 400.5,265.5 C 398.629,267.232 397.296,269.398 396.5,272C 392.106,271.503 389.772,273.336 389.5,277.5C 392.482,277.963 395.482,278.296 398.5,278.5C 398.5,278.833 398.5,279.167 398.5,279.5C 396.973,279.427 395.973,280.094 395.5,281.5C 393.167,281.5 390.833,281.5 388.5,281.5C 386.732,278.838 386.065,275.838 386.5,272.5C 386.833,272.5 387.167,272.5 387.5,272.5C 389.404,272.262 390.738,271.262 391.5,269.5C 394.352,267.909 397.352,266.576 400.5,265.5 Z"/></g>
<g><path style="opacity:1" fill="#f5dab1" d="M 413.5,271.5 C 413.027,272.906 412.027,273.573 410.5,273.5C 410.973,272.094 411.973,271.427 413.5,271.5 Z"/></g>
<g><path style="opacity:1" fill="#f1a635" d="M 173.5,265.5 C 174.873,265.343 176.207,265.51 177.5,266C 182.439,271.09 188.439,274.257 195.5,275.5C 196.246,276.736 196.579,278.07 196.5,279.5C 190.545,277.189 184.879,274.356 179.5,271C 177.237,269.383 175.237,267.55 173.5,265.5 Z"/></g>
<g><path style="opacity:1" fill="#f7e3bd" d="M 486.5,272.5 C 484.363,275.973 481.363,278.306 477.5,279.5C 480.208,276.791 483.208,274.458 486.5,272.5 Z"/></g>
<g><path style="opacity:1" fill="#eabb6b" d="M 208.5,272.5 C 209.993,273.312 210.66,274.645 210.5,276.5C 210.48,277.726 210.147,278.726 209.5,279.5C 209.552,277.097 209.219,274.764 208.5,272.5 Z"/></g>
<g><path style="opacity:1" fill="#f7dab4" d="M 406.5,275.5 C 406.027,276.906 405.027,277.573 403.5,277.5C 403.973,276.094 404.973,275.427 406.5,275.5 Z"/></g>
<g><path style="opacity:1" fill="#f5daad" d="M 386.5,272.5 C 386.065,275.838 386.732,278.838 388.5,281.5C 387.504,281.586 386.671,281.252 386,280.5C 385.199,277.633 385.366,274.966 386.5,272.5 Z"/></g>
<g><path style="opacity:1" fill="#f3cb8f" d="M 196.5,279.5 C 197.167,279.5 197.833,279.5 198.5,279.5C 200.076,280.143 201.41,281.143 202.5,282.5C 200.033,282.245 198.033,281.245 196.5,279.5 Z"/></g>
<g><path style="opacity:1" fill="#f3a535" d="M 198.5,279.5 C 201.807,280.051 205.14,280.384 208.5,280.5C 207.01,282.28 205.01,282.946 202.5,282.5C 201.41,281.143 200.076,280.143 198.5,279.5 Z"/></g>
<g><path style="opacity:1" fill="#f5dbb2" d="M 398.5,279.5 C 398.027,280.906 397.027,281.573 395.5,281.5C 395.973,280.094 396.973,279.427 398.5,279.5 Z"/></g>
<g><path style="opacity:1" fill="#f9deb7" d="M 477.5,279.5 C 474.409,282.409 471.076,285.242 467.5,288C 465.073,289.591 462.407,290.425 459.5,290.5C 465.459,286.85 471.459,283.183 477.5,279.5 Z"/></g>
<g><path style="opacity:1" fill="#f7deb6" d="M 116.5,291.5 C 117.873,291.343 119.207,291.51 120.5,292C 124.738,295.086 128.738,298.253 132.5,301.5C 126.363,299.346 121.03,296.013 116.5,291.5 Z"/></g>
<g><path style="opacity:1" fill="#f9e9ce" d="M 473.5,295.5 C 470.451,297.863 467.118,299.863 463.5,301.5C 463.414,300.504 463.748,299.671 464.5,299C 467.293,297.346 470.293,296.179 473.5,295.5 Z"/></g>
<g><path style="opacity:1" fill="#647c8f" d="M 305.5,288.5 C 307.645,294.062 309.645,299.729 311.5,305.5C 310.526,304.365 309.359,303.365 308,302.5C 307.332,297.727 306.499,293.06 305.5,288.5 Z"/></g>
<g><path style="opacity:1" fill="#f8e3c2" d="M 132.5,301.5 C 134.921,302.891 137.588,303.725 140.5,304C 142.063,304.759 143.063,305.926 143.5,307.5C 139.313,306.244 135.646,304.244 132.5,301.5 Z"/></g>
<g><path style="opacity:1" fill="#f5dfbd" d="M 440.5,299.5 C 439.542,300.962 438.376,302.295 437,303.5C 436.004,309.334 438.504,311.667 444.5,310.5C 437.866,313.043 434.7,310.71 435,303.5C 436.451,301.536 438.284,300.203 440.5,299.5 Z"/></g>
<g><path style="opacity:1" fill="#f7e0b9" d="M 150.5,298.5 C 155.525,299.012 159.192,301.512 161.5,306C 160.711,311.232 157.711,313.232 152.5,312C 151.058,311.623 150.058,310.79 149.5,309.5C 152.445,310.468 155.445,310.634 158.5,310C 159.982,307.408 159.648,305.075 157.5,303C 155.25,301.274 152.917,299.774 150.5,298.5 Z"/></g>
<g><path style="opacity:1" fill="#6c8291" d="M 311.5,305.5 C 314.669,311.45 317.003,317.783 318.5,324.5C 316.904,322.168 315.738,319.501 315,316.5C 314.292,315.619 313.458,314.953 312.5,314.5C 312.296,311.482 311.963,308.482 311.5,305.5 Z"/></g>
<g><path style="opacity:1" fill="#9aa9b4" d="M 320.5,328.5 C 321.871,330.936 322.871,333.603 323.5,336.5C 321.345,334.383 320.345,331.716 320.5,328.5 Z"/></g>
<g><path style="opacity:1" fill="#bcd1df" d="M 270.5,340.5 C 270.655,343.716 269.655,346.383 267.5,348.5C 268.129,345.603 269.129,342.936 270.5,340.5 Z"/></g>
<g><path style="opacity:1" fill="#a0adb7" d="M 326.5,344.5 C 328.074,346.102 328.741,348.102 328.5,350.5C 326.926,348.898 326.259,346.898 326.5,344.5 Z"/></g>
<g><path style="opacity:1" fill="#a3b1b9" d="M 331.5,359.5 C 333.584,362.053 334.917,365.053 335.5,368.5C 333.416,365.947 332.083,362.947 331.5,359.5 Z"/></g>
<g><path style="opacity:1" fill="#75a6c9" d="M 320.5,357.5 C 322.219,363.682 324.552,369.682 327.5,375.5C 326.423,376.705 325.09,377.372 323.5,377.5C 323.5,376.167 322.833,375.5 321.5,375.5C 320.426,374.115 319.093,372.949 317.5,372C 314.009,371.078 310.675,369.911 307.5,368.5C 307.5,364.833 307.5,361.167 307.5,357.5C 309.954,359.06 312.62,360.06 315.5,360.5C 314.262,353.204 312.262,346.204 309.5,339.5C 309.5,338.167 308.833,337.5 307.5,337.5C 307.334,332.821 307.501,328.155 308,323.5C 311.099,331.132 313.599,338.965 315.5,347C 317.396,350.496 319.063,353.996 320.5,357.5 Z"/></g>
<g><path style="opacity:1" fill="#5d7789" d="M 335.5,369.5 C 336.651,371.779 337.651,374.112 338.5,376.5C 338.41,379.152 339.076,381.485 340.5,383.5C 341.871,385.936 342.871,388.603 343.5,391.5C 343.755,393.967 344.755,395.967 346.5,397.5C 347.167,399.833 347.833,402.167 348.5,404.5C 346.691,402.901 345.358,400.901 344.5,398.5C 343.914,398.709 343.414,399.043 343,399.5C 341.811,394.709 340.311,390.042 338.5,385.5C 338.076,382.646 337.076,379.979 335.5,377.5C 336.213,374.904 336.213,372.237 335.5,369.5 Z"/></g>
<g><path style="opacity:1" fill="#9cabb4" d="M 338.5,376.5 C 339.924,378.515 340.59,380.848 340.5,383.5C 339.076,381.485 338.41,379.152 338.5,376.5 Z"/></g>
<g><path style="opacity:1" fill="#71a6cc" d="M 291.5,284.5 C 293.806,284.993 296.139,285.326 298.5,285.5C 298.5,285.833 298.5,286.167 298.5,286.5C 297.501,382.665 297.167,478.999 297.5,575.5C 290.666,575 287.333,571.333 287.5,564.5C 284.393,557.846 280.726,551.513 276.5,545.5C 274.774,543.772 273.441,541.772 272.5,539.5C 272.206,536.246 270.873,533.579 268.5,531.5C 266.4,527.798 264.9,523.798 264,519.5C 263.34,517.676 262.173,516.343 260.5,515.5C 260.13,512.733 258.796,510.733 256.5,509.5C 255.796,507.656 254.463,507.156 252.5,508C 240.791,514.239 228.791,519.905 216.5,525C 214.638,526.366 212.972,527.866 211.5,529.5C 210.048,528.698 208.382,528.198 206.5,528C 205.978,527.439 205.645,526.772 205.5,526C 207.185,522.362 207.851,518.529 207.5,514.5C 209.077,506.04 211.744,498.04 215.5,490.5C 216.871,488.064 217.871,485.397 218.5,482.5C 219.503,479.15 220.503,475.817 221.5,472.5C 223.245,470.967 224.245,468.967 224.5,466.5C 225.523,461.929 226.856,457.429 228.5,453C 230.626,447.323 233.126,441.823 236,436.5C 236.966,429.908 239.133,423.908 242.5,418.5C 243.887,415.947 245.72,413.614 248,411.5C 250.817,401.126 253.817,390.792 257,380.5C 258.324,378.5 259.991,376.833 262,375.5C 264.14,366.891 265.973,358.224 267.5,349.5C 267.5,349.167 267.5,348.833 267.5,348.5C 269.655,346.383 270.655,343.716 270.5,340.5C 272.902,332.367 276.236,324.534 280.5,317C 283.528,305.817 287.194,294.983 291.5,284.5 Z"/></g>
<g><path style="opacity:1" fill="#f5f8f9" d="M 285.5,368.5 C 286.5,368.5 287.5,368.5 288.5,368.5C 288.5,373.5 288.5,378.5 288.5,383.5C 283.888,381.262 279.221,378.929 274.5,376.5C 275.193,375.482 275.859,374.482 276.5,373.5C 279.591,372.023 282.591,370.356 285.5,368.5 Z"/></g>
<g><path style="opacity:1" fill="#4d718b" d="M 288.5,337.5 C 287.504,337.414 286.671,337.748 286,338.5C 285.261,341.546 284.428,344.546 283.5,347.5C 281.398,351.481 280.064,355.815 279.5,360.5C 281.703,360.396 283.703,359.73 285.5,358.5C 286.5,358.5 287.5,358.5 288.5,358.5C 288.5,361.5 288.5,364.5 288.5,367.5C 287.209,367.263 286.209,367.596 285.5,368.5C 282.591,370.356 279.591,372.023 276.5,373.5C 274.938,373.733 273.605,374.4 272.5,375.5C 271.5,375.5 270.5,375.5 269.5,375.5C 275.328,358.867 281.161,342.2 287,325.5C 287.333,325.167 287.667,324.833 288,324.5C 288.499,328.821 288.666,333.154 288.5,337.5 Z"/></g>
<g><path style="opacity:1" fill="#aec4d2" d="M 288.5,337.5 C 289.165,340.649 289.498,343.982 289.5,347.5C 289.486,351.239 288.82,354.572 287.5,357.5C 288.624,351.248 288.79,344.915 288,338.5C 287.169,341.902 285.669,344.902 283.5,347.5C 284.428,344.546 285.261,341.546 286,338.5C 286.671,337.748 287.504,337.414 288.5,337.5 Z"/></g>
<g><path style="opacity:1" fill="#f3f5f7" d="M 287.5,357.5 C 286.508,357.328 285.842,357.662 285.5,358.5C 283.703,359.73 281.703,360.396 279.5,360.5C 280.064,355.815 281.398,351.481 283.5,347.5C 285.669,344.902 287.169,341.902 288,338.5C 288.79,344.915 288.624,351.248 287.5,357.5 Z"/></g>
<g><path style="opacity:1" fill="#9abed9" d="M 276.5,373.5 C 275.859,374.482 275.193,375.482 274.5,376.5C 279.221,378.929 283.888,381.262 288.5,383.5C 288.53,384.497 288.03,385.164 287,385.5C 282.183,384.981 278.35,382.814 275.5,379C 273.754,378.529 272.087,377.862 270.5,377C 271.416,376.722 272.082,376.222 272.5,375.5C 273.605,374.4 274.938,373.733 276.5,373.5 Z"/></g>
<g><path style="opacity:1" fill="#f4f7f9" d="M 277.5,401.5 C 277.326,399.139 276.993,396.806 276.5,394.5C 276.47,393.503 276.97,392.836 278,392.5C 284.179,393.536 285.012,396.203 280.5,400.5C 279.675,401.386 278.675,401.719 277.5,401.5 Z"/></g>
<g><path style="opacity:1" fill="#b6c1c7" d="M 343.5,391.5 C 345.245,393.033 346.245,395.033 346.5,397.5C 344.755,395.967 343.755,393.967 343.5,391.5 Z"/></g>
<g><path style="opacity:1" fill="#4f7590" d="M 276.5,394.5 C 276.993,396.806 277.326,399.139 277.5,401.5C 277.824,404.694 276.658,405.694 274,404.5C 272.517,399.9 271.35,395.233 270.5,390.5C 271.391,389.41 272.391,389.41 273.5,390.5C 274.057,392.332 275.057,393.665 276.5,394.5 Z"/></g>
<g><path style="opacity:1" fill="#86aecb" d="M 267.5,349.5 C 265.973,358.224 264.14,366.891 262,375.5C 259.991,376.833 258.324,378.5 257,380.5C 253.817,390.792 250.817,401.126 248,411.5C 245.72,413.614 243.887,415.947 242.5,418.5C 250.252,395.241 258.585,372.241 267.5,349.5 Z"/></g>
<g><path style="opacity:1" fill="#94b6ce" d="M 267.5,415.5 C 268.115,411.04 267.115,407.04 264.5,403.5C 263.304,405.145 262.304,406.811 261.5,408.5C 261.41,405.848 262.076,403.515 263.5,401.5C 264.458,401.047 265.292,400.381 266,399.5C 268.432,404.805 268.932,410.138 267.5,415.5 Z"/></g>
<g><path style="opacity:1" fill="#f4f6f8" d="M 267.5,415.5 C 263.227,419.947 259.061,424.613 255,429.5C 254.536,428.906 254.369,428.239 254.5,427.5C 256.598,420.991 258.932,414.658 261.5,408.5C 262.304,406.811 263.304,405.145 264.5,403.5C 267.115,407.04 268.115,411.04 267.5,415.5 Z"/></g>
<g><path style="opacity:1" fill="#f1f4f6" d="M 286.5,410.5 C 287.167,410.5 287.833,410.5 288.5,410.5C 288.5,413.5 288.5,416.5 288.5,419.5C 286.784,419.629 285.117,419.962 283.5,420.5C 281.734,416.326 282.734,412.992 286.5,410.5 Z"/></g>
<g><path style="opacity:1" fill="#8d9eab" d="M 348.5,405.5 C 350.584,408.053 351.917,411.053 352.5,414.5C 351.069,413.097 349.902,411.431 349,409.5C 348.51,408.207 348.343,406.873 348.5,405.5 Z"/></g>
<g><path style="opacity:1" fill="#4a6d85" d="M 312.5,314.5 C 313.458,314.953 314.292,315.619 315,316.5C 315.738,319.501 316.904,322.168 318.5,324.5C 319.345,325.671 320.011,327.005 320.5,328.5C 320.345,331.716 321.345,334.383 323.5,336.5C 324.512,339.252 325.512,341.919 326.5,344.5C 326.259,346.898 326.926,348.898 328.5,350.5C 329.946,353.254 330.946,356.254 331.5,359.5C 332.083,362.947 333.416,365.947 335.5,368.5C 335.5,368.833 335.5,369.167 335.5,369.5C 336.213,372.237 336.213,374.904 335.5,377.5C 337.076,379.979 338.076,382.646 338.5,385.5C 337.024,383.938 335.524,382.271 334,380.5C 333.13,381.108 332.63,381.941 332.5,383C 333.477,384.497 334.477,385.997 335.5,387.5C 335.392,388.442 335.059,389.275 334.5,390C 331.435,388.682 328.268,387.182 325,385.5C 323.467,386.695 321.967,386.695 320.5,385.5C 318.783,386.668 318.116,388.335 318.5,390.5C 317.833,390.5 317.5,390.833 317.5,391.5C 309.897,393.997 309.564,397.33 316.5,401.5C 317.211,403.03 318.211,404.363 319.5,405.5C 317.545,404.677 315.545,404.51 313.5,405C 312.587,406.414 312.587,407.914 313.5,409.5C 312.109,407.429 310.276,405.762 308,404.5C 307.505,406.473 307.338,408.473 307.5,410.5C 306.225,413.396 306.225,416.396 307.5,419.5C 307.5,420.167 307.5,420.833 307.5,421.5C 306.005,421.415 305.005,422.081 304.5,423.5C 306.748,431.206 306.748,438.872 304.5,446.5C 305.458,450.951 306.625,455.284 308,459.5C 309.396,456.702 310.23,453.702 310.5,450.5C 311.5,450.5 312.5,450.5 313.5,450.5C 313.5,448.5 313.5,446.5 313.5,444.5C 314.5,444.5 315.5,444.5 316.5,444.5C 316.194,447.385 316.527,450.052 317.5,452.5C 315.904,456.357 314.904,460.357 314.5,464.5C 313.2,467.024 313.2,469.691 314.5,472.5C 316.739,471.212 319.072,470.212 321.5,469.5C 323.379,469.393 323.712,469.893 322.5,471C 323.103,472.825 323.77,474.659 324.5,476.5C 325.167,475.5 325.833,474.5 326.5,473.5C 327.518,474.193 328.518,474.859 329.5,475.5C 326.53,476.653 323.863,478.32 321.5,480.5C 319.847,480.66 318.514,481.326 317.5,482.5C 316.185,483.476 314.852,484.476 313.5,485.5C 313.709,486.086 314.043,486.586 314.5,487C 319.937,489.717 325.604,491.883 331.5,493.5C 332.167,494.167 332.833,494.833 333.5,495.5C 327.344,495.775 321.844,494.108 317,490.5C 315.124,491.609 313.291,492.609 311.5,493.5C 310.417,493.461 309.417,493.127 308.5,492.5C 307.534,494.396 307.201,496.396 307.5,498.5C 307.5,512.5 307.5,526.5 307.5,540.5C 306.732,539.737 306.232,538.737 306,537.5C 305.26,526.171 304.593,514.838 304,503.5C 302.951,502.483 301.784,502.316 300.5,503C 301.821,515.438 301.821,527.938 300.5,540.5C 300.167,532.833 299.833,525.167 299.5,517.5C 299.671,463.66 299.838,409.993 300,356.5C 301.014,352.901 301.847,349.235 302.5,345.5C 303.167,346.167 303.833,346.833 304.5,347.5C 305.167,344.023 305.834,340.689 306.5,337.5C 306.177,344.022 306.51,350.355 307.5,356.5C 307.5,356.833 307.5,357.167 307.5,357.5C 307.5,361.167 307.5,364.833 307.5,368.5C 307.5,373.5 307.5,378.5 307.5,383.5C 307.369,384.376 307.702,385.043 308.5,385.5C 313.782,383.197 318.782,380.531 323.5,377.5C 325.09,377.372 326.423,376.705 327.5,375.5C 324.552,369.682 322.219,363.682 320.5,357.5C 323.988,354.579 325.988,355.579 326.5,360.5C 329.247,356.789 328.747,353.456 325,350.5C 322.569,339.202 318.569,328.535 313,318.5C 312.51,317.207 312.343,315.873 312.5,314.5 Z"/></g>
<g><path style="opacity:1" fill="#a4bdcd" d="M 321.5,375.5 C 322.833,375.5 323.5,376.167 323.5,377.5C 318.782,380.531 313.782,383.197 308.5,385.5C 307.702,385.043 307.369,384.376 307.5,383.5C 308.552,383.649 309.552,383.483 310.5,383C 313.992,379.946 317.658,377.446 321.5,375.5 Z"/></g>
<g><path style="opacity:1" fill="#f7f9fb" d="M 307.5,368.5 C 310.675,369.911 314.009,371.078 317.5,372C 319.093,372.949 320.426,374.115 321.5,375.5C 317.658,377.446 313.992,379.946 310.5,383C 309.552,383.483 308.552,383.649 307.5,383.5C 307.5,378.5 307.5,373.5 307.5,368.5 Z"/></g>
<g><path style="opacity:1" fill="#96adbc" d="M 288.5,410.5 C 289.833,413.833 289.833,417.167 288.5,420.5C 286.716,421.72 285.05,421.72 283.5,420.5C 285.117,419.962 286.784,419.629 288.5,419.5C 288.5,416.5 288.5,413.5 288.5,410.5 Z"/></g>
<g><path style="opacity:1" fill="#bfc8ce" d="M 354.5,421.5 C 356.821,423.09 357.821,425.423 357.5,428.5C 356.264,426.351 355.264,424.018 354.5,421.5 Z"/></g>
<g><path style="opacity:1" fill="#4f758f" d="M 263.5,401.5 C 262.076,403.515 261.41,405.848 261.5,408.5C 258.932,414.658 256.598,420.991 254.5,427.5C 253.833,427.5 253.5,427.833 253.5,428.5C 251.695,432.346 249.361,436.013 246.5,439.5C 245.488,437.163 245.655,434.83 247,432.5C 252.22,420.726 256.886,408.726 261,396.5C 261.414,396.043 261.914,395.709 262.5,395.5C 263.466,397.396 263.799,399.396 263.5,401.5 Z"/></g>
<g><path style="opacity:1" fill="#4b728e" d="M 286.5,410.5 C 282.734,412.992 281.734,416.326 283.5,420.5C 285.05,421.72 286.716,421.72 288.5,420.5C 288.667,432.171 288.5,443.838 288,455.5C 284.344,442.763 280.844,429.93 277.5,417C 280.486,413.345 283.486,409.678 286.5,406C 287.6,405.568 288.267,406.068 288.5,407.5C 288.058,408.739 287.391,409.739 286.5,410.5 Z"/></g>
<g><path style="opacity:1" fill="#e6e7e8" d="M 603.5,380.5 C 603.5,395.5 603.5,410.5 603.5,425.5C 522.833,425.667 442.166,425.5 361.5,425C 441.833,424.5 522.166,424.333 602.5,424.5C 602.171,409.657 602.504,394.99 603.5,380.5 Z"/></g>
<g><path style="opacity:1" fill="#85afce" d="M 267.5,415.5 C 264.824,420.194 262.657,425.194 261,430.5C 260.586,430.043 260.086,429.709 259.5,429.5C 257.651,430.593 255.984,431.926 254.5,433.5C 253.548,431.955 253.215,430.288 253.5,428.5C 253.5,427.833 253.833,427.5 254.5,427.5C 254.369,428.239 254.536,428.906 255,429.5C 259.061,424.613 263.227,419.947 267.5,415.5 Z"/></g>
<g><path style="opacity:1" fill="#8899a4" d="M 357.5,428.5 C 359.354,432.725 361.021,437.058 362.5,441.5C 359.423,437.74 357.756,433.407 357.5,428.5 Z"/></g>
<g><path style="opacity:1" fill="#f1f4f5" d="M 272.5,446.5 C 270.413,447.585 269.08,449.251 268.5,451.5C 265.956,452.708 264.622,454.708 264.5,457.5C 260.226,457.197 256.559,455.53 253.5,452.5C 252.386,451.277 252.219,449.944 253,448.5C 257.705,444.064 263.205,441.064 269.5,439.5C 271.117,438.962 272.784,438.629 274.5,438.5C 274.893,441.513 274.226,444.18 272.5,446.5 Z"/></g>
<g><path style="opacity:1" fill="#eff3f6" d="M 277.5,452.5 C 278.117,452.611 278.617,452.944 279,453.5C 280.172,458.506 281.339,463.506 282.5,468.5C 281.167,468.5 279.833,468.5 278.5,468.5C 277.421,466.457 275.754,465.124 273.5,464.5C 271.074,463.647 270.24,461.981 271,459.5C 272.666,456.669 274.832,454.336 277.5,452.5 Z"/></g>
<g><path style="opacity:1" fill="#5885a6" d="M 298.5,286.5 C 297.836,382.839 298.502,478.839 300.5,574.5C 300.5,574.833 300.5,575.167 300.5,575.5C 299.5,575.5 298.5,575.5 297.5,575.5C 297.167,478.999 297.501,382.665 298.5,286.5 Z"/></g>
<g><path style="opacity:1" fill="#54748c" d="M 269.5,439.5 C 263.205,441.064 257.705,444.064 253,448.5C 252.219,449.944 252.386,451.277 253.5,452.5C 256.559,455.53 260.226,457.197 264.5,457.5C 264.622,454.708 265.956,452.708 268.5,451.5C 270.587,450.415 271.92,448.749 272.5,446.5C 273.847,445.829 275.014,445.829 276,446.5C 276.813,448.436 277.313,450.436 277.5,452.5C 274.832,454.336 272.666,456.669 271,459.5C 270.24,461.981 271.074,463.647 273.5,464.5C 273.265,465.097 272.765,465.43 272,465.5C 269.889,464.528 267.722,463.695 265.5,463C 260.229,459.867 254.895,457.033 249.5,454.5C 248.282,453.839 246.949,453.172 245.5,452.5C 253.353,443.814 261.02,434.981 268.5,426C 269.449,425.383 270.282,425.549 271,426.5C 271.897,429.49 272.731,432.49 273.5,435.5C 272.133,436.84 270.8,438.173 269.5,439.5 Z"/></g>
<g><path style="opacity:1" fill="#9aa8b2" d="M 272.5,446.5 C 271.92,448.749 270.587,450.415 268.5,451.5C 269.08,449.251 270.413,447.585 272.5,446.5 Z"/></g>
<g><path style="opacity:1" fill="#90bad6" d="M 249.5,454.5 C 254.895,457.033 260.229,459.867 265.5,463C 267.722,463.695 269.889,464.528 272,465.5C 272.765,465.43 273.265,465.097 273.5,464.5C 275.754,465.124 277.421,466.457 278.5,468.5C 279.765,469.479 281.099,470.479 282.5,471.5C 270.042,467.84 258.042,462.507 246.5,455.5C 247.325,454.614 248.325,454.281 249.5,454.5 Z"/></g>
<g><path style="opacity:1" fill="#496d88" d="M 305.5,288.5 C 306.499,293.06 307.332,297.727 308,302.5C 309.359,303.365 310.526,304.365 311.5,305.5C 311.963,308.482 312.296,311.482 312.5,314.5C 312.343,315.873 312.51,317.207 313,318.5C 318.569,328.535 322.569,339.202 325,350.5C 328.747,353.456 329.247,356.789 326.5,360.5C 325.988,355.579 323.988,354.579 320.5,357.5C 319.063,353.996 317.396,350.496 315.5,347C 313.599,338.965 311.099,331.132 308,323.5C 307.501,328.155 307.334,332.821 307.5,337.5C 307.167,337.5 306.833,337.5 306.5,337.5C 305.834,340.689 305.167,344.023 304.5,347.5C 303.833,346.833 303.167,346.167 302.5,345.5C 301.847,349.235 301.014,352.901 300,356.5C 299.838,409.993 299.671,463.66 299.5,517.5C 299.833,525.167 300.167,532.833 300.5,540.5C 301.821,527.938 301.821,515.438 300.5,503C 301.784,502.316 302.951,502.483 304,503.5C 304.593,514.838 305.26,526.171 306,537.5C 306.232,538.737 306.732,539.737 307.5,540.5C 307.336,543.187 307.503,545.854 308,548.5C 311.296,543.573 313.796,538.24 315.5,532.5C 317.074,532.063 318.241,531.063 319,529.5C 322.634,520.898 326.801,512.565 331.5,504.5C 326.375,500.793 320.708,498.126 314.5,496.5C 313.452,495.452 312.452,494.452 311.5,493.5C 313.291,492.609 315.124,491.609 317,490.5C 321.844,494.108 327.344,495.775 333.5,495.5C 334.552,495.649 335.552,495.483 336.5,495C 340.125,490.367 342.791,485.2 344.5,479.5C 347.167,475.167 349.833,470.833 352.5,466.5C 351.635,465.417 350.635,465.251 349.5,466C 344.809,469.244 339.809,471.744 334.5,473.5C 334.158,474.338 333.492,474.672 332.5,474.5C 331.391,474.557 330.391,474.89 329.5,475.5C 328.518,474.859 327.518,474.193 326.5,473.5C 325.833,474.5 325.167,475.5 324.5,476.5C 323.77,474.659 323.103,472.825 322.5,471C 323.712,469.893 323.379,469.393 321.5,469.5C 330.333,465.552 339,461.219 347.5,456.5C 351.243,454.573 351.41,452.239 348,449.5C 340.794,441.963 333.96,434.129 327.5,426C 326.251,425.26 325.251,425.427 324.5,426.5C 323.833,429.833 323.167,433.167 322.5,436.5C 320.896,437.287 320.229,438.62 320.5,440.5C 319.508,444.407 318.508,448.407 317.5,452.5C 316.527,450.052 316.194,447.385 316.5,444.5C 315.5,444.5 314.5,444.5 313.5,444.5C 313.5,446.5 313.5,448.5 313.5,450.5C 312.5,450.5 311.5,450.5 310.5,450.5C 310.23,453.702 309.396,456.702 308,459.5C 306.625,455.284 305.458,450.951 304.5,446.5C 306.748,438.872 306.748,431.206 304.5,423.5C 305.005,422.081 306.005,421.415 307.5,421.5C 307.333,432.838 307.5,444.172 308,455.5C 308.619,452.968 309.619,450.635 311,448.5C 312.488,437.743 314.988,427.243 318.5,417C 316.601,414.611 314.934,412.111 313.5,409.5C 312.587,407.914 312.587,406.414 313.5,405C 315.545,404.51 317.545,404.677 319.5,405.5C 320.496,405.586 321.329,405.252 322,404.5C 323.594,399.076 324.427,393.743 324.5,388.5C 322.55,389.372 320.55,390.039 318.5,390.5C 318.116,388.335 318.783,386.668 320.5,385.5C 321.967,386.695 323.467,386.695 325,385.5C 328.268,387.182 331.435,388.682 334.5,390C 335.059,389.275 335.392,388.442 335.5,387.5C 334.477,385.997 333.477,384.497 332.5,383C 332.63,381.941 333.13,381.108 334,380.5C 335.524,382.271 337.024,383.938 338.5,385.5C 340.311,390.042 341.811,394.709 343,399.5C 343.414,399.043 343.914,398.709 344.5,398.5C 345.358,400.901 346.691,402.901 348.5,404.5C 348.5,404.833 348.5,405.167 348.5,405.5C 348.343,406.873 348.51,408.207 349,409.5C 349.902,411.431 351.069,413.097 352.5,414.5C 353.566,416.701 354.233,419.035 354.5,421.5C 355.264,424.018 356.264,426.351 357.5,428.5C 357.756,433.407 359.423,437.74 362.5,441.5C 364.279,445.594 365.612,449.927 366.5,454.5C 367.786,464.354 370.786,473.688 375.5,482.5C 375.957,483.298 376.624,483.631 377.5,483.5C 378.083,486.947 379.416,489.947 381.5,492.5C 382.167,494.167 382.833,495.833 383.5,497.5C 384.038,499.117 384.371,500.784 384.5,502.5C 383.943,508.394 385.443,513.727 389,518.5C 389.61,521.827 390.11,525.161 390.5,528.5C 387.911,528.461 385.911,529.461 384.5,531.5C 384.5,530.167 384.5,528.833 384.5,527.5C 380.889,526.347 377.223,525.347 373.5,524.5C 373.047,523.542 372.381,522.708 371.5,522C 369.073,520.409 366.407,519.575 363.5,519.5C 363.047,518.542 362.381,517.708 361.5,517C 358.232,515.85 354.899,515.016 351.5,514.5C 347.975,510.823 343.642,508.99 338.5,509C 337.748,509.671 337.414,510.504 337.5,511.5C 336.662,511.842 336.328,512.508 336.5,513.5C 332.612,520.272 328.945,527.272 325.5,534.5C 324.094,534.973 323.427,535.973 323.5,537.5C 321.428,539.35 320.095,541.683 319.5,544.5C 318.075,545.922 317.075,547.589 316.5,549.5C 313.696,557.003 310.362,564.336 306.5,571.5C 304.929,573.415 302.929,574.415 300.5,574.5C 298.502,478.839 297.836,382.839 298.5,286.5C 298.5,286.167 298.5,285.833 298.5,285.5C 302.197,283.615 304.531,284.615 305.5,288.5 Z"/></g>
<g><path style="opacity:1" fill="#7ba9ca" d="M 324.5,426.5 C 325.251,425.427 326.251,425.26 327.5,426C 333.96,434.129 340.794,441.963 348,449.5C 351.41,452.239 351.243,454.573 347.5,456.5C 346.796,454.656 345.463,454.156 343.5,455C 338.798,458.851 333.465,461.351 327.5,462.5C 327.092,458.542 325.092,455.875 321.5,454.5C 320.395,453.4 319.062,452.733 317.5,452.5C 318.508,448.407 319.508,444.407 320.5,440.5C 320.232,442.099 320.566,443.432 321.5,444.5C 325.33,448.499 328.997,452.665 332.5,457C 333.5,457.667 334.5,457.667 335.5,457C 337.267,454.61 339.6,452.943 342.5,452C 343.5,449.909 342.833,448.243 340.5,447C 335.581,444.711 330.914,442.211 326.5,439.5C 325.833,438.5 325.167,437.5 324.5,436.5C 325.151,434.174 325.818,431.841 326.5,429.5C 326.36,427.97 325.693,426.97 324.5,426.5 Z"/></g>
<g><path style="opacity:1" fill="#f2f5f7" d="M 317.5,452.5 C 319.062,452.733 320.395,453.4 321.5,454.5C 322.164,456.487 323.331,458.154 325,459.5C 325.667,460.5 325.667,461.5 325,462.5C 321.308,464.421 317.808,466.421 314.5,468.5C 314.5,467.167 314.5,465.833 314.5,464.5C 314.904,460.357 315.904,456.357 317.5,452.5 Z"/></g>
<g><path style="opacity:1" fill="#f9fbfc" d="M 326.5,439.5 C 330.914,442.211 335.581,444.711 340.5,447C 342.833,448.243 343.5,449.909 342.5,452C 339.6,452.943 337.267,454.61 335.5,457C 334.5,457.667 333.5,457.667 332.5,457C 328.997,452.665 325.33,448.499 321.5,444.5C 321.148,441.927 321.648,439.594 323,437.5C 323.816,438.823 324.983,439.489 326.5,439.5 Z"/></g>
<g><path style="opacity:1" fill="#c7d6e0" d="M 322.5,436.5 C 323.167,436.5 323.833,436.5 324.5,436.5C 325.167,437.5 325.833,438.5 326.5,439.5C 324.983,439.489 323.816,438.823 323,437.5C 321.648,439.594 321.148,441.927 321.5,444.5C 320.566,443.432 320.232,442.099 320.5,440.5C 320.229,438.62 320.896,437.287 322.5,436.5 Z"/></g>
<g><path style="opacity:1" fill="#a0c0d9" d="M 324.5,426.5 C 325.693,426.97 326.36,427.97 326.5,429.5C 325.818,431.841 325.151,434.174 324.5,436.5C 323.833,436.5 323.167,436.5 322.5,436.5C 323.167,433.167 323.833,429.833 324.5,426.5 Z"/></g>
<g><path style="opacity:1" fill="#8499a8" d="M 336.5,425.5 C 338.587,426.585 339.92,428.251 340.5,430.5C 338.413,429.415 337.08,427.749 336.5,425.5 Z"/></g>
<g><path style="opacity:1" fill="#71a3c7" d="M 313.5,409.5 C 314.934,412.111 316.601,414.611 318.5,417C 314.988,427.243 312.488,437.743 311,448.5C 309.619,450.635 308.619,452.968 308,455.5C 307.5,444.172 307.333,432.838 307.5,421.5C 307.5,420.833 307.5,420.167 307.5,419.5C 309.435,420.15 311.435,420.483 313.5,420.5C 314.37,415.383 312.37,412.049 307.5,410.5C 307.338,408.473 307.505,406.473 308,404.5C 310.276,405.762 312.109,407.429 313.5,409.5 Z"/></g>
<g><path style="opacity:1" fill="#e8eef1" d="M 307.5,410.5 C 312.37,412.049 314.37,415.383 313.5,420.5C 311.435,420.483 309.435,420.15 307.5,419.5C 306.225,416.396 306.225,413.396 307.5,410.5 Z"/></g>
<g><path style="opacity:1" fill="#b6c1c6" d="M 330.5,402.5 C 330.59,405.152 329.924,407.485 328.5,409.5C 328.41,406.848 329.076,404.515 330.5,402.5 Z"/></g>
<g><path style="opacity:1" fill="#f1f5f7" d="M 330.5,401.5 C 331.5,401.5 332.5,401.5 333.5,401.5C 335.078,409.142 337.578,416.476 341,423.5C 341.422,425.355 341.922,427.189 342.5,429C 342.43,429.765 342.097,430.265 341.5,430.5C 341.167,430.5 340.833,430.5 340.5,430.5C 339.92,428.251 338.587,426.585 336.5,425.5C 334.008,422.531 331.508,419.531 329,416.5C 328.503,414.19 328.337,411.857 328.5,409.5C 329.924,407.485 330.59,405.152 330.5,402.5C 330.5,402.167 330.5,401.833 330.5,401.5 Z"/></g>
<g><path style="opacity:1" fill="#72a2c2" d="M 341.5,430.5 C 342.097,430.265 342.43,429.765 342.5,429C 341.922,427.189 341.422,425.355 341,423.5C 337.578,416.476 335.078,409.142 333.5,401.5C 332.5,401.5 331.5,401.5 330.5,401.5C 331.004,398.64 332.004,395.973 333.5,393.5C 339.231,407.807 344.565,422.307 349.5,437C 349.333,437.5 349.167,438 349,438.5C 346.295,435.964 343.795,433.297 341.5,430.5 Z"/></g>
<g><path style="opacity:1" fill="#78a3c2" d="M 319.5,405.5 C 318.211,404.363 317.211,403.03 316.5,401.5C 318.445,398.607 319.779,395.273 320.5,391.5C 319.5,391.5 318.5,391.5 317.5,391.5C 317.5,390.833 317.833,390.5 318.5,390.5C 320.55,390.039 322.55,389.372 324.5,388.5C 324.427,393.743 323.594,399.076 322,404.5C 321.329,405.252 320.496,405.586 319.5,405.5 Z"/></g>
<g><path style="opacity:1" fill="#e9eef1" d="M 317.5,391.5 C 318.5,391.5 319.5,391.5 320.5,391.5C 319.779,395.273 318.445,398.607 316.5,401.5C 309.564,397.33 309.897,393.997 317.5,391.5 Z"/></g>
<g><path style="opacity:1" fill="#94a6b1" d="M 306.5,337.5 C 306.833,337.5 307.167,337.5 307.5,337.5C 308.833,337.5 309.5,338.167 309.5,339.5C 308.883,339.389 308.383,339.056 308,338.5C 307.501,344.491 307.334,350.491 307.5,356.5C 306.51,350.355 306.177,344.022 306.5,337.5 Z"/></g>
<g><path style="opacity:1" fill="#f2f6f9" d="M 309.5,339.5 C 312.262,346.204 314.262,353.204 315.5,360.5C 312.62,360.06 309.954,359.06 307.5,357.5C 307.5,357.167 307.5,356.833 307.5,356.5C 307.334,350.491 307.501,344.491 308,338.5C 308.383,339.056 308.883,339.389 309.5,339.5 Z"/></g>
<g><path style="opacity:1" fill="#94bad4" d="M 321.5,454.5 C 325.092,455.875 327.092,458.542 327.5,462.5C 333.465,461.351 338.798,458.851 343.5,455C 345.463,454.156 346.796,454.656 347.5,456.5C 339,461.219 330.333,465.552 321.5,469.5C 319.072,470.212 316.739,471.212 314.5,472.5C 313.2,469.691 313.2,467.024 314.5,464.5C 314.5,465.833 314.5,467.167 314.5,468.5C 317.808,466.421 321.308,464.421 325,462.5C 325.667,461.5 325.667,460.5 325,459.5C 323.331,458.154 322.164,456.487 321.5,454.5 Z"/></g>
<g><path style="opacity:1" fill="#c1d3df" d="M 224.5,466.5 C 224.245,468.967 223.245,470.967 221.5,472.5C 221.755,470.033 222.755,468.033 224.5,466.5 Z"/></g>
<g><path style="opacity:1" fill="#55768d" d="M 257.5,474.5 C 256.833,475.5 256.167,476.5 255.5,477.5C 254.167,475.833 252.833,474.167 251.5,472.5C 251.47,471.503 251.97,470.836 253,470.5C 255.521,470.822 257.021,472.156 257.5,474.5 Z"/></g>
<g><path style="opacity:1" fill="#f9fbfc" d="M 257.5,474.5 C 260.271,474.421 262.937,474.921 265.5,476C 270.546,479.189 275.879,481.856 281.5,484C 283.373,484.953 283.706,486.12 282.5,487.5C 278.447,488.35 274.447,489.516 270.5,491C 269.944,491.383 269.611,491.883 269.5,492.5C 267.847,492.66 266.514,493.326 265.5,494.5C 263.408,494.439 261.908,493.439 261,491.5C 258.324,487.151 256.491,482.485 255.5,477.5C 256.167,476.5 256.833,475.5 257.5,474.5 Z"/></g>
<g><path style="opacity:1" fill="#f8f9fa" d="M 340.5,481.5 C 338.466,482.591 337.132,484.257 336.5,486.5C 330.167,486.5 323.833,486.5 317.5,486.5C 316.646,485.368 316.646,484.035 317.5,482.5C 318.514,481.326 319.847,480.66 321.5,480.5C 325.945,479.78 329.612,477.78 332.5,474.5C 333.492,474.672 334.158,474.338 334.5,473.5C 336.674,473.08 338.674,473.08 340.5,473.5C 340.055,476.053 340.055,478.72 340.5,481.5 Z"/></g>
<g><path style="opacity:1" fill="#f0f4f7" d="M 363.5,484.5 C 364.751,487.406 365.251,490.406 365,493.5C 361.298,489.63 357.464,485.963 353.5,482.5C 353.415,479.351 354.415,476.684 356.5,474.5C 357.575,473.438 358.575,473.438 359.5,474.5C 360.488,477.45 361.321,480.45 362,483.5C 362.383,484.056 362.883,484.389 363.5,484.5 Z"/></g>
<g><path style="opacity:1" fill="#8db4cb" d="M 358.5,472.5 C 359.833,472.5 361.167,472.5 362.5,472.5C 362.438,476.401 362.771,480.401 363.5,484.5C 362.883,484.389 362.383,484.056 362,483.5C 361.321,480.45 360.488,477.45 359.5,474.5C 358.575,473.438 357.575,473.438 356.5,474.5C 356.5,473.167 357.167,472.5 358.5,472.5 Z"/></g>
<g><path style="opacity:1" fill="#eaeff2" d="M 237.5,474.5 C 241.031,476.227 242.364,478.893 241.5,482.5C 238.217,486.121 234.884,489.787 231.5,493.5C 231.167,492.833 230.833,492.167 230.5,491.5C 232.055,485.407 234.388,479.74 237.5,474.5 Z"/></g>
<g><path style="opacity:1" fill="#c6ced4" d="M 332.5,474.5 C 329.612,477.78 325.945,479.78 321.5,480.5C 323.863,478.32 326.53,476.653 329.5,475.5C 330.391,474.89 331.391,474.557 332.5,474.5 Z"/></g>
<g><path style="opacity:1" fill="#657d90" d="M 366.5,454.5 C 370.365,462.908 373.699,471.575 376.5,480.5C 377.11,481.391 377.443,482.391 377.5,483.5C 376.624,483.631 375.957,483.298 375.5,482.5C 370.786,473.688 367.786,464.354 366.5,454.5 Z"/></g>
<g><path style="opacity:1" fill="#bfd4df" d="M 218.5,482.5 C 217.871,485.397 216.871,488.064 215.5,490.5C 215.345,487.284 216.345,484.617 218.5,482.5 Z"/></g>
<g><path style="opacity:1" fill="#99bcd4" d="M 333.5,495.5 C 332.833,494.833 332.167,494.167 331.5,493.5C 332.93,493.579 334.264,493.246 335.5,492.5C 337.66,489.022 339.327,485.356 340.5,481.5C 340.055,478.72 340.055,476.053 340.5,473.5C 338.674,473.08 336.674,473.08 334.5,473.5C 339.809,471.744 344.809,469.244 349.5,466C 350.635,465.251 351.635,465.417 352.5,466.5C 349.833,470.833 347.167,475.167 344.5,479.5C 342.791,485.2 340.125,490.367 336.5,495C 335.552,495.483 334.552,495.649 333.5,495.5 Z"/></g>
<g><path style="opacity:1" fill="#a0c5df" d="M 251.5,472.5 C 252.833,474.167 254.167,475.833 255.5,477.5C 256.491,482.485 258.324,487.151 261,491.5C 261.908,493.439 263.408,494.439 265.5,494.5C 263.44,495.811 261.274,495.811 259,494.5C 254.767,485.931 250.1,477.598 245,469.5C 244.251,468.365 244.417,467.365 245.5,466.5C 246.795,467.098 248.128,467.598 249.5,468C 250.099,469.622 250.766,471.122 251.5,472.5 Z"/></g>
<g><path style="opacity:1" fill="#a9c4d6" d="M 282.5,487.5 C 278.557,489.963 274.224,491.63 269.5,492.5C 269.611,491.883 269.944,491.383 270.5,491C 274.447,489.516 278.447,488.35 282.5,487.5 Z"/></g>
<g><path style="opacity:1" fill="#f4f6f8" d="M 244.5,489.5 C 245.822,489.33 246.989,489.663 248,490.5C 249.029,493.39 250.195,496.224 251.5,499C 251.167,499.5 250.833,500 250.5,500.5C 242.956,503.789 235.623,507.456 228.5,511.5C 227.702,511.043 227.369,510.376 227.5,509.5C 233.167,502.833 238.833,496.167 244.5,489.5 Z"/></g>
<g><path style="opacity:1" fill="#b6c5cf" d="M 340.5,481.5 C 339.327,485.356 337.66,489.022 335.5,492.5C 334.264,493.246 332.93,493.579 331.5,493.5C 325.604,491.883 319.937,489.717 314.5,487C 314.043,486.586 313.709,486.086 313.5,485.5C 314.852,484.476 316.185,483.476 317.5,482.5C 316.646,484.035 316.646,485.368 317.5,486.5C 321.197,488.521 325.197,490.188 329.5,491.5C 332.687,490.973 335.02,489.307 336.5,486.5C 337.132,484.257 338.466,482.591 340.5,481.5 Z"/></g>
<g><path style="opacity:1" fill="#cbcdce" d="M 317.5,486.5 C 323.833,486.5 330.167,486.5 336.5,486.5C 335.02,489.307 332.687,490.973 329.5,491.5C 325.197,490.188 321.197,488.521 317.5,486.5 Z"/></g>
<g><path style="opacity:1" fill="#aebbc3" d="M 376.5,480.5 C 377.497,480.47 378.164,480.97 378.5,482C 379.426,485.541 380.426,489.041 381.5,492.5C 379.416,489.947 378.083,486.947 377.5,483.5C 377.443,482.391 377.11,481.391 376.5,480.5 Z"/></g>
<g><path style="opacity:1" fill="#b8c3c9" d="M 383.5,497.5 C 384.833,497.5 386.167,497.5 387.5,497.5C 387.196,498.15 386.863,498.817 386.5,499.5C 390.239,505.644 392.239,512.311 392.5,519.5C 390.106,513.713 387.44,508.046 384.5,502.5C 384.371,500.784 384.038,499.117 383.5,497.5 Z"/></g>
<g><path style="opacity:1" fill="#cdcece" d="M 387.5,497.5 C 415.509,502.526 443.509,507.692 471.5,513C 472.623,514.044 473.956,514.71 475.5,515C 490.132,516.26 504.465,518.927 518.5,523C 519.833,524 519.833,525 518.5,526C 511.749,527.776 504.916,529.276 498,530.5C 483.244,535.334 468.077,538.834 452.5,541C 401.73,552.401 351.064,563.901 300.5,575.5C 300.5,575.167 300.5,574.833 300.5,574.5C 302.929,574.415 304.929,573.415 306.5,571.5C 310.362,564.336 313.696,557.003 316.5,549.5C 316.643,551.262 316.309,552.929 315.5,554.5C 317.701,556.18 320.201,557.18 323,557.5C 326.232,555.95 329.232,553.95 332,551.5C 332.749,550.365 332.583,549.365 331.5,548.5C 327.539,546.957 323.539,545.624 319.5,544.5C 320.095,541.683 321.428,539.35 323.5,537.5C 323.36,539.124 324.027,540.29 325.5,541C 328.794,541.346 331.961,542.179 335,543.5C 338.165,543.466 338.998,542.133 337.5,539.5C 333.46,537.757 329.46,536.091 325.5,534.5C 328.945,527.272 332.612,520.272 336.5,513.5C 336.62,514.586 337.287,515.253 338.5,515.5C 340.453,514.844 342.453,514.511 344.5,514.5C 344.5,513.5 344.5,512.5 344.5,511.5C 346.176,513.834 348.509,514.834 351.5,514.5C 351.5,514.833 351.5,515.167 351.5,515.5C 350.325,515.281 349.325,515.614 348.5,516.5C 349.64,518.473 350.973,520.307 352.5,522C 356.689,522.812 360.689,522.645 364.5,521.5C 368.852,523.899 373.185,526.399 377.5,529C 379.926,533.288 383.593,534.622 388.5,533C 389.056,532.617 389.389,532.117 389.5,531.5C 391.232,530 392.899,528.333 394.5,526.5C 393.827,524.149 393.16,521.816 392.5,519.5C 392.239,512.311 390.239,505.644 386.5,499.5C 386.863,498.817 387.196,498.15 387.5,497.5 Z"/></g>
<g><path style="opacity:1" fill="#4d718b" d="M 237.5,474.5 C 234.388,479.74 232.055,485.407 230.5,491.5C 230.833,492.167 231.167,492.833 231.5,493.5C 234.884,489.787 238.217,486.121 241.5,482.5C 243.977,484.426 244.977,486.759 244.5,489.5C 238.833,496.167 233.167,502.833 227.5,509.5C 225.832,511.513 223.832,513.18 221.5,514.5C 220.311,515.429 218.978,515.762 217.5,515.5C 222.84,500.125 228.173,484.791 233.5,469.5C 236.91,469.384 238.244,471.05 237.5,474.5 Z"/></g>
<g><path style="opacity:1" fill="#5c7b94" d="M 283.5,497.5 C 278.398,499.217 273.398,501.217 268.5,503.5C 266.158,503.225 266.158,502.392 268.5,501C 273.052,499.442 277.385,497.442 281.5,495C 283.754,493.85 286.087,493.516 288.5,494C 286.569,494.902 284.903,496.069 283.5,497.5 Z"/></g>
<g><path style="opacity:1" fill="#cdcdcc" d="M 314.5,499.5 C 315.107,502.715 316.274,505.715 318,508.5C 319.073,506.453 320.239,504.453 321.5,502.5C 320.757,501.818 320.091,501.151 319.5,500.5C 321.179,500.285 322.179,500.952 322.5,502.5C 323.623,508 321.79,512 317,514.5C 313.999,518.832 311.833,523.498 310.5,528.5C 309.501,518.522 309.168,508.522 309.5,498.5C 311.292,498.366 312.958,498.699 314.5,499.5 Z"/></g>
<g><path style="opacity:1" fill="#bac6cd" d="M 348.5,490.5 C 352.332,491.655 355.332,493.988 357.5,497.5C 354.936,497.021 352.436,496.355 350,495.5C 349.833,495.833 349.667,496.167 349.5,496.5C 350.934,498.22 351.767,500.22 352,502.5C 353.878,503.053 355.378,504.053 356.5,505.5C 351.579,504.924 347.579,502.757 344.5,499C 345.711,496.08 347.044,493.247 348.5,490.5 Z"/></g>
<g><path style="opacity:1" fill="#f7f8f9" d="M 314.5,499.5 C 315.5,499.5 316.5,499.5 317.5,499.5C 318.492,499.328 319.158,499.662 319.5,500.5C 320.091,501.151 320.757,501.818 321.5,502.5C 320.239,504.453 319.073,506.453 318,508.5C 316.274,505.715 315.107,502.715 314.5,499.5 Z"/></g>
<g><path style="opacity:1" fill="#d7d7d9" d="M 357.5,497.5 C 357.833,498.167 358.167,498.833 358.5,499.5C 358.178,501.722 358.845,503.556 360.5,505C 359.207,505.49 357.873,505.657 356.5,505.5C 355.378,504.053 353.878,503.053 352,502.5C 351.767,500.22 350.934,498.22 349.5,496.5C 349.667,496.167 349.833,495.833 350,495.5C 352.436,496.355 354.936,497.021 357.5,497.5 Z"/></g>
<g><path style="opacity:1" fill="#cbcece" d="M 284.5,505.5 C 280.47,506.513 276.47,507.847 272.5,509.5C 272.5,510.5 272.5,511.5 272.5,512.5C 271.833,512.5 271.5,512.167 271.5,511.5C 271.223,508.552 271.556,505.719 272.5,503C 274.833,502.667 277.167,502.333 279.5,502C 283.563,498.511 285.23,499.678 284.5,505.5 Z"/></g>
<g><path style="opacity:1" fill="#95b6cf" d="M 311.5,493.5 C 312.452,494.452 313.452,495.452 314.5,496.5C 320.708,498.126 326.375,500.793 331.5,504.5C 326.801,512.565 322.634,520.898 319,529.5C 318.241,531.063 317.074,532.063 315.5,532.5C 315.215,530.712 315.548,529.045 316.5,527.5C 319.504,521.477 322.504,515.477 325.5,509.5C 326.021,506.364 325.021,504.03 322.5,502.5C 322.179,500.952 321.179,500.285 319.5,500.5C 319.158,499.662 318.492,499.328 317.5,499.5C 315.22,498.233 312.72,497.233 310,496.5C 308.97,496.836 308.47,497.503 308.5,498.5C 308.167,498.5 307.833,498.5 307.5,498.5C 307.201,496.396 307.534,494.396 308.5,492.5C 309.417,493.127 310.417,493.461 311.5,493.5 Z"/></g>
<g><path style="opacity:1" fill="#afc1cc" d="M 358.5,499.5 C 362.19,502.191 365.19,505.524 367.5,509.5C 367.376,510.107 367.043,510.44 366.5,510.5C 362.706,509.58 359.373,507.913 356.5,505.5C 357.873,505.657 359.207,505.49 360.5,505C 358.845,503.556 358.178,501.722 358.5,499.5 Z"/></g>
<g><path style="opacity:1" fill="#72a4c6" d="M 366.5,510.5 C 367.043,510.44 367.376,510.107 367.5,509.5C 365.19,505.524 362.19,502.191 358.5,499.5C 358.167,498.833 357.833,498.167 357.5,497.5C 355.332,493.988 352.332,491.655 348.5,490.5C 350.678,488.142 352.345,485.475 353.5,482.5C 357.464,485.963 361.298,489.63 365,493.5C 365.251,490.406 364.751,487.406 363.5,484.5C 362.771,480.401 362.438,476.401 362.5,472.5C 361.167,472.5 359.833,472.5 358.5,472.5C 359.234,471.292 359.567,469.959 359.5,468.5C 360.5,468.5 361.5,468.5 362.5,468.5C 367.846,484.207 373.18,499.874 378.5,515.5C 374.073,514.71 370.073,513.043 366.5,510.5 Z"/></g>
<g><path style="opacity:1" fill="#b9c5d1" d="M 288.5,505.5 C 287.167,505.5 285.833,505.5 284.5,505.5C 285.23,499.678 283.563,498.511 279.5,502C 277.167,502.333 274.833,502.667 272.5,503C 271.556,505.719 271.223,508.552 271.5,511.5C 269.182,509.815 268.182,507.481 268.5,504.5C 268.5,504.167 268.5,503.833 268.5,503.5C 273.398,501.217 278.398,499.217 283.5,497.5C 285.117,496.962 286.784,496.629 288.5,496.5C 288.5,499.5 288.5,502.5 288.5,505.5 Z"/></g>
<g><path style="opacity:1" fill="#f8f9fa" d="M 284.5,505.5 C 285.833,505.5 287.167,505.5 288.5,505.5C 288.5,508.833 288.5,512.167 288.5,515.5C 284.242,516.408 279.908,517.075 275.5,517.5C 274.241,516.021 273.241,514.354 272.5,512.5C 272.5,511.5 272.5,510.5 272.5,509.5C 276.47,507.847 280.47,506.513 284.5,505.5 Z"/></g>
<g><path style="opacity:1" fill="#f3f5f7" d="M 344.5,511.5 C 344.5,512.5 344.5,513.5 344.5,514.5C 342.453,514.511 340.453,514.844 338.5,515.5C 337.287,515.253 336.62,514.586 336.5,513.5C 336.328,512.508 336.662,511.842 337.5,511.5C 339.792,510.314 342.126,510.314 344.5,511.5 Z"/></g>
<g><path style="opacity:1" fill="#5d7c94" d="M 256.5,509.5 C 249.769,512.535 243.103,515.535 236.5,518.5C 234.517,519.471 232.517,520.471 230.5,521.5C 229.391,521.557 228.391,521.89 227.5,522.5C 223.477,523.766 219.811,525.766 216.5,528.5C 215.873,529.417 215.539,530.417 215.5,531.5C 213.517,531.843 212.183,531.176 211.5,529.5C 212.972,527.866 214.638,526.366 216.5,525C 228.791,519.905 240.791,514.239 252.5,508C 254.463,507.156 255.796,507.656 256.5,509.5 Z"/></g>
<g><path style="opacity:1" fill="#8aa8bf" d="M 351.5,514.5 C 348.509,514.834 346.176,513.834 344.5,511.5C 342.126,510.314 339.792,510.314 337.5,511.5C 337.414,510.504 337.748,509.671 338.5,509C 343.642,508.99 347.975,510.823 351.5,514.5 Z"/></g>
<g><path style="opacity:1" fill="#c2ccd2" d="M 256.5,509.5 C 258.796,510.733 260.13,512.733 260.5,515.5C 258.924,514.925 257.258,514.592 255.5,514.5C 249.157,515.835 242.823,517.169 236.5,518.5C 243.103,515.535 249.769,512.535 256.5,509.5 Z"/></g>
<g><path style="opacity:1" fill="#fbfbfc" d="M 260.5,515.5 C 261.68,517.693 262.68,520.026 263.5,522.5C 252.181,523.666 240.848,523.832 229.5,523C 230.056,522.617 230.389,522.117 230.5,521.5C 232.517,520.471 234.517,519.471 236.5,518.5C 242.823,517.169 249.157,515.835 255.5,514.5C 257.258,514.592 258.924,514.925 260.5,515.5 Z"/></g>
<g><path style="opacity:1" fill="#f8f8f8" d="M 429.5,515.5 C 434.693,515.204 439.026,516.87 442.5,520.5C 437.544,521.494 432.544,521.827 427.5,521.5C 427.704,519.315 428.37,517.315 429.5,515.5 Z"/></g>
<g><path style="opacity:1" fill="#f6f8f9" d="M 351.5,515.5 C 355.555,516.871 359.555,518.205 363.5,519.5C 363.833,520.167 364.167,520.833 364.5,521.5C 360.689,522.645 356.689,522.812 352.5,522C 350.973,520.307 349.64,518.473 348.5,516.5C 349.325,515.614 350.325,515.281 351.5,515.5 Z"/></g>
<g><path style="opacity:1" fill="#91afc7" d="M 351.5,515.5 C 351.5,515.167 351.5,514.833 351.5,514.5C 354.899,515.016 358.232,515.85 361.5,517C 362.381,517.708 363.047,518.542 363.5,519.5C 359.555,518.205 355.555,516.871 351.5,515.5 Z"/></g>
<g><path style="opacity:1" fill="#f3f3f3" d="M 413.5,516.5 C 414.833,516.5 416.167,516.5 417.5,516.5C 417.035,520.629 414.701,522.629 410.5,522.5C 409.167,522.167 407.833,521.833 406.5,521.5C 406.667,521.167 406.833,520.833 407,520.5C 409.173,519.067 411.34,517.734 413.5,516.5 Z"/></g>
<g><path style="opacity:1" fill="#f4f4f4" d="M 453.5,516.5 C 460.058,517.303 466.392,518.803 472.5,521C 466.349,521.966 460.349,521.466 454.5,519.5C 453.614,518.675 453.281,517.675 453.5,516.5 Z"/></g>
<g><path style="opacity:1" fill="#a2c5dd" d="M 268.5,504.5 C 268.182,507.481 269.182,509.815 271.5,511.5C 271.5,512.167 271.833,512.5 272.5,512.5C 273.241,514.354 274.241,516.021 275.5,517.5C 277.876,521.527 280.21,525.527 282.5,529.5C 282.973,530.906 283.973,531.573 285.5,531.5C 286.209,532.404 287.209,532.737 288.5,532.5C 288.666,537.844 288.499,543.177 288,548.5C 281.005,536.203 274.005,523.87 267,511.5C 266.767,509.22 265.934,507.22 264.5,505.5C 265.689,504.571 267.022,504.238 268.5,504.5 Z"/></g>
<g><path style="opacity:1" fill="#89b0ca" d="M 207.5,514.5 C 207.851,518.529 207.185,522.362 205.5,526C 205.645,526.772 205.978,527.439 206.5,528C 208.382,528.198 210.048,528.698 211.5,529.5C 212.183,531.176 213.517,531.843 215.5,531.5C 215.5,531.833 215.5,532.167 215.5,532.5C 209.584,533.204 204.917,531.204 201.5,526.5C 202.764,523.21 203.93,519.876 205,516.5C 205.417,515.244 206.25,514.577 207.5,514.5 Z"/></g>
<g><path style="opacity:1" fill="#c2ccd2" d="M 317.5,499.5 C 316.5,499.5 315.5,499.5 314.5,499.5C 312.958,498.699 311.292,498.366 309.5,498.5C 309.168,508.522 309.501,518.522 310.5,528.5C 311.833,523.498 313.999,518.832 317,514.5C 321.79,512 323.623,508 322.5,502.5C 325.021,504.03 326.021,506.364 325.5,509.5C 319.488,515.704 315.322,523.037 313,531.5C 312.047,533.455 310.713,535.122 309,536.5C 308.5,523.838 308.333,511.171 308.5,498.5C 308.47,497.503 308.97,496.836 310,496.5C 312.72,497.233 315.22,498.233 317.5,499.5 Z"/></g>
<g><path style="opacity:1" fill="#d2d7db" d="M 288.5,515.5 C 288.5,521.167 288.5,526.833 288.5,532.5C 287.209,532.737 286.209,532.404 285.5,531.5C 287.176,530.817 287.843,529.483 287.5,527.5C 285.219,527.077 283.552,527.744 282.5,529.5C 280.21,525.527 277.876,521.527 275.5,517.5C 279.908,517.075 284.242,516.408 288.5,515.5 Z"/></g>
<g><path style="opacity:1" fill="#a7c0d1" d="M 307.5,498.5 C 307.833,498.5 308.167,498.5 308.5,498.5C 308.333,511.171 308.5,523.838 309,536.5C 310.713,535.122 312.047,533.455 313,531.5C 315.322,523.037 319.488,515.704 325.5,509.5C 322.504,515.477 319.504,521.477 316.5,527.5C 315.548,529.045 315.215,530.712 315.5,532.5C 313.796,538.24 311.296,543.573 308,548.5C 307.503,545.854 307.336,543.187 307.5,540.5C 307.5,526.5 307.5,512.5 307.5,498.5 Z"/></g>
<g><path style="opacity:1" fill="#597284" d="M 384.5,502.5 C 387.44,508.046 390.106,513.713 392.5,519.5C 393.16,521.816 393.827,524.149 394.5,526.5C 392.899,528.333 391.232,530 389.5,531.5C 387.883,532.038 386.216,532.371 384.5,532.5C 384.5,532.167 384.5,531.833 384.5,531.5C 385.911,529.461 387.911,528.461 390.5,528.5C 390.11,525.161 389.61,521.827 389,518.5C 385.443,513.727 383.943,508.394 384.5,502.5 Z"/></g>
<g><path style="opacity:1" fill="#dbdbdb" d="M 559.5,522.5 C 561.167,522.5 562.833,522.5 564.5,522.5C 564.241,526.068 562.241,527.401 558.5,526.5C 558.433,525.041 558.766,523.708 559.5,522.5 Z"/></g>
<g><path style="opacity:1" fill="#d5dadc" d="M 260.5,515.5 C 262.173,516.343 263.34,517.676 264,519.5C 264.9,523.798 266.4,527.798 268.5,531.5C 261.159,531.334 253.826,531.5 246.5,532C 245.944,532.383 245.611,532.883 245.5,533.5C 242.887,532.905 242.887,532.071 245.5,531C 251.491,530.501 257.491,530.334 263.5,530.5C 263.5,528.833 263.5,527.167 263.5,525.5C 251.5,525.5 239.5,525.5 227.5,525.5C 227.5,524.5 227.5,523.5 227.5,522.5C 228.391,521.89 229.391,521.557 230.5,521.5C 230.389,522.117 230.056,522.617 229.5,523C 240.848,523.832 252.181,523.666 263.5,522.5C 262.68,520.026 261.68,517.693 260.5,515.5 Z"/></g>
<g><path style="opacity:1" fill="#cdcece" d="M 227.5,522.5 C 227.5,523.5 227.5,524.5 227.5,525.5C 239.5,525.5 251.5,525.5 263.5,525.5C 263.5,527.167 263.5,528.833 263.5,530.5C 257.491,530.334 251.491,530.501 245.5,531C 242.887,532.071 242.887,532.905 245.5,533.5C 254.676,534.773 263.676,536.773 272.5,539.5C 273.441,541.772 274.774,543.772 276.5,545.5C 256.012,541.698 235.678,537.365 215.5,532.5C 215.5,532.167 215.5,531.833 215.5,531.5C 215.539,530.417 215.873,529.417 216.5,528.5C 219.811,525.766 223.477,523.766 227.5,522.5 Z"/></g>
<g><path style="opacity:1" fill="#f5f7f8" d="M 285.5,531.5 C 283.973,531.573 282.973,530.906 282.5,529.5C 283.552,527.744 285.219,527.077 287.5,527.5C 287.843,529.483 287.176,530.817 285.5,531.5 Z"/></g>
<g><path style="opacity:1" fill="#7ba4bc" d="M 373.5,524.5 C 377.223,525.347 380.889,526.347 384.5,527.5C 384.5,528.833 384.5,530.167 384.5,531.5C 384.5,531.833 384.5,532.167 384.5,532.5C 380.852,529.858 377.185,527.191 373.5,524.5 Z"/></g>
<g><path style="opacity:1" fill="#f4f4f4" d="M 354.5,529.5 C 359.985,528.348 365.651,528.182 371.5,529C 372.687,530.019 373.687,531.186 374.5,532.5C 367.554,533.465 360.887,532.465 354.5,529.5 Z"/></g>
<g><path style="opacity:1" fill="#f1f1f1" d="M 406.5,528.5 C 409.187,528.336 411.854,528.503 414.5,529C 416.708,530.462 417.374,532.295 416.5,534.5C 413.839,533.668 411.172,532.834 408.5,532C 407.027,531.29 406.36,530.124 406.5,528.5 Z"/></g>
<g><path style="opacity:1" fill="#f3f2f2" d="M 335.5,529.5 C 338.167,529.5 340.833,529.5 343.5,529.5C 342.712,533.797 340.379,534.63 336.5,532C 335.748,531.329 335.414,530.496 335.5,529.5 Z"/></g>
<g><path style="opacity:1" fill="#f7f7f7" d="M 427.5,528.5 C 432.833,528.5 438.167,528.5 443.5,528.5C 443.719,529.675 443.386,530.675 442.5,531.5C 438.197,533.495 433.863,535.161 429.5,536.5C 428.361,533.996 427.694,531.33 427.5,528.5 Z"/></g>
<g><path style="opacity:1" fill="#f5f5f5" d="M 458.5,529.5 C 462.226,529.177 465.893,529.511 469.5,530.5C 469.291,531.086 468.957,531.586 468.5,532C 463.273,532.912 458.107,534.079 453,535.5C 451.743,535.15 451.409,534.483 452,533.5C 453.785,532.76 455.618,532.093 457.5,531.5C 458.298,531.043 458.631,530.376 458.5,529.5 Z"/></g>
<g><path style="opacity:1" fill="#f5f6f7" d="M 268.5,531.5 C 270.873,533.579 272.206,536.246 272.5,539.5C 263.676,536.773 254.676,534.773 245.5,533.5C 245.611,532.883 245.944,532.383 246.5,532C 253.826,531.5 261.159,531.334 268.5,531.5 Z"/></g>
<g><path style="opacity:1" fill="#9fb7c8" d="M 363.5,519.5 C 366.407,519.575 369.073,520.409 371.5,522C 372.381,522.708 373.047,523.542 373.5,524.5C 377.185,527.191 380.852,529.858 384.5,532.5C 386.216,532.371 387.883,532.038 389.5,531.5C 389.389,532.117 389.056,532.617 388.5,533C 383.593,534.622 379.926,533.288 377.5,529C 373.185,526.399 368.852,523.899 364.5,521.5C 364.167,520.833 363.833,520.167 363.5,519.5 Z"/></g>
<g><path style="opacity:1" fill="#f4f4f4" d="M 391.5,532.5 C 395.469,533.66 399.469,534.827 403.5,536C 406.179,537.789 406.013,538.955 403,539.5C 399.189,538.638 395.356,537.971 391.5,537.5C 391.5,535.833 391.5,534.167 391.5,532.5 Z"/></g>
<g><path style="opacity:1" fill="#f8f8f8" d="M 350.5,533.5 C 356.489,534.26 362.489,534.927 368.5,535.5C 367.696,538.792 365.53,540.458 362,540.5C 358.407,540.06 354.907,539.227 351.5,538C 350.62,536.644 350.286,535.144 350.5,533.5 Z"/></g>
<g><path style="opacity:1" fill="#f7f7f8" d="M 325.5,534.5 C 329.46,536.091 333.46,537.757 337.5,539.5C 338.998,542.133 338.165,543.466 335,543.5C 331.961,542.179 328.794,541.346 325.5,541C 324.027,540.29 323.36,539.124 323.5,537.5C 323.427,535.973 324.094,534.973 325.5,534.5 Z"/></g>
<g><path style="opacity:1" fill="#f6f6f6" d="M 374.5,541.5 C 375.5,541.5 376.5,541.5 377.5,541.5C 378.218,548.445 376.218,549.445 371.5,544.5C 372.34,543.265 373.34,542.265 374.5,541.5 Z"/></g>
<g><path style="opacity:1" fill="#f5f5f5" d="M 347.5,543.5 C 350.022,543.128 352.022,543.961 353.5,546C 351.527,546.495 349.527,546.662 347.5,546.5C 347.5,545.5 347.5,544.5 347.5,543.5 Z"/></g>
<g><path style="opacity:1" fill="#f8f9f9" d="M 319.5,544.5 C 323.539,545.624 327.539,546.957 331.5,548.5C 332.583,549.365 332.749,550.365 332,551.5C 329.232,553.95 326.232,555.95 323,557.5C 320.201,557.18 317.701,556.18 315.5,554.5C 316.309,552.929 316.643,551.262 316.5,549.5C 317.075,547.589 318.075,545.922 319.5,544.5 Z"/></g>
</svg>
