<?xml version="1.0" encoding="UTF-8"?>
<!DOCTYPE svg PUBLIC "-//W3C//DTD SVG 1.1//EN" "http://www.w3.org/Graphics/SVG/1.1/DTD/svg11.dtd">
<svg xmlns="http://www.w3.org/2000/svg" version="1.1" width="500px" height="500px" style="shape-rendering:geometricPrecision; text-rendering:geometricPrecision; image-rendering:optimizeQuality; fill-rule:evenodd; clip-rule:evenodd" xmlns:xlink="http://www.w3.org/1999/xlink">
<g><path style="opacity:0.004" fill="#fefffe" d="M 209.5,2.5 C 210.833,3.16667 210.833,3.16667 209.5,2.5 Z"/></g>
<g><path style="opacity:0.004" fill="#fefffe" d="M 422.5,10.5 C 423.833,11.1667 423.833,11.1667 422.5,10.5 Z"/></g>
<g><path style="opacity:1" fill="#4793fe" d="M 265.5,17.5 C 267.703,17.6036 269.703,18.2702 271.5,19.5C 271.5,20.5 271.5,21.5 271.5,22.5C 272.873,22.3433 274.207,22.51 275.5,23C 279.061,26.0726 282.728,28.9059 286.5,31.5C 290.859,35.5282 295.193,39.5282 299.5,43.5C 299.525,46.179 300.858,47.5123 303.5,47.5C 303.525,50.179 304.858,51.5123 307.5,51.5C 307.525,54.179 308.858,55.5123 311.5,55.5C 313.167,59.1667 315.833,61.8333 319.5,63.5C 319.736,65.9732 321.069,67.6399 323.5,68.5C 344.156,69.4997 364.823,69.833 385.5,69.5C 389.122,69.322 392.456,69.9886 395.5,71.5C 397.74,73.5802 400.24,75.5802 403,77.5C 403.414,77.0426 403.914,76.7093 404.5,76.5C 405.524,77.8532 406.857,78.5198 408.5,78.5C 408.571,81.0241 407.571,83.0241 405.5,84.5C 407.167,86.1667 408.833,87.8333 410.5,89.5C 411.734,87.6017 411.401,85.935 409.5,84.5C 410.145,83.2679 410.311,81.9346 410,80.5C 411.741,81.7577 413.574,82.7577 415.5,83.5C 418.973,85.6367 421.306,88.6367 422.5,92.5C 422.241,94.9893 423.241,96.656 425.5,97.5C 426.599,101.682 426.599,105.848 425.5,110C 426.009,111.169 426.842,112.002 428,112.5C 427.843,132.526 428.676,152.192 430.5,171.5C 431.486,173.426 432.486,175.426 433.5,177.5C 434.5,180.5 436.5,182.5 439.5,183.5C 441.139,187.139 443.805,189.805 447.5,191.5C 448.013,193.854 449.179,195.854 451,197.5C 452.129,199.141 453.629,200.141 455.5,200.5C 458.167,202.833 460.833,205.167 463.5,207.5C 463.658,211.418 465.658,213.418 469.5,213.5C 471.543,214.579 472.876,216.246 473.5,218.5C 473.738,220.404 474.738,221.738 476.5,222.5C 476.343,223.873 476.51,225.207 477,226.5C 479.197,230.894 481.364,235.227 483.5,239.5C 484.833,246.167 484.833,252.833 483.5,259.5C 480.159,264.201 477.826,269.535 476.5,275.5C 471.768,276.022 470.101,278.355 471.5,282.5C 467.63,280.686 465.963,282.019 466.5,286.5C 465.5,286.5 464.5,286.5 463.5,286.5C 463.5,287.5 463.5,288.5 463.5,289.5C 461.876,289.36 460.71,290.027 460,291.5C 459.667,291.167 459.333,290.833 459,290.5C 458.506,292.134 458.34,293.801 458.5,295.5C 457.5,297.167 456.167,298.5 454.5,299.5C 452.833,299.5 451.167,299.5 449.5,299.5C 449.5,300.833 449.5,302.167 449.5,303.5C 447.5,304.167 445.5,304.833 443.5,305.5C 443.5,307.5 443.5,309.5 443.5,311.5C 439.719,310.143 436.385,310.976 433.5,314C 434.167,314.333 434.833,314.667 435.5,315C 434.033,316.098 433.199,317.598 433,319.5C 431.933,320.191 430.766,320.691 429.5,321C 430.423,323.041 430.756,325.208 430.5,327.5C 429.683,329.969 429.183,332.635 429,335.5C 428.667,351.5 428.333,367.5 428,383.5C 427.667,383.167 427.333,382.833 427,382.5C 426.447,385.359 426.614,388.192 427.5,391C 426.037,395.081 425.037,399.248 424.5,403.5C 422.688,403.771 421.022,404.438 419.5,405.5C 420.533,408.769 419.366,411.103 416,412.5C 415.517,413.448 415.351,414.448 415.5,415.5C 410.124,421.526 403.458,425.526 395.5,427.5C 391.958,427.62 388.458,427.286 385,426.5C 365.588,428.271 346.088,429.104 326.5,429C 324.253,430.655 321.92,430.988 319.5,430C 320.684,431.145 320.684,432.312 319.5,433.5C 318.5,433.5 317.5,433.5 316.5,433.5C 316.483,435.565 316.15,437.565 315.5,439.5C 314.183,439.821 312.849,440.154 311.5,440.5C 310.353,440.182 309.519,439.516 309,438.5C 308.342,440.108 308.842,441.275 310.5,442C 306.17,443.157 303.837,445.991 303.5,450.5C 302.5,450.5 301.5,450.5 300.5,450.5C 300.5,451.833 300.5,453.167 300.5,454.5C 296.193,458.472 291.859,462.472 287.5,466.5C 284.412,466.197 282.746,467.53 282.5,470.5C 280.011,470.298 277.677,470.798 275.5,472C 276.308,472.308 276.975,472.808 277.5,473.5C 277.062,474.506 276.396,474.506 275.5,473.5C 274.614,474.325 274.281,475.325 274.5,476.5C 273.5,476.5 272.5,476.5 271.5,476.5C 271.5,477.5 271.5,478.5 271.5,479.5C 271.167,479.5 270.833,479.5 270.5,479.5C 263.824,480.503 257.157,481.503 250.5,482.5C 250.333,418.832 250.5,355.166 251,291.5C 253.782,289.229 255.949,286.563 257.5,283.5C 267.746,274.758 277.579,265.425 287,255.5C 287.464,254.906 287.631,254.239 287.5,253.5C 292.5,247.833 297.833,242.5 303.5,237.5C 304.239,237.631 304.906,237.464 305.5,237C 312.428,230.577 318.762,223.744 324.5,216.5C 325.655,213.543 326.655,210.543 327.5,207.5C 327.66,205.801 327.494,204.134 327,202.5C 326.583,201.244 325.75,200.577 324.5,200.5C 324.5,200.167 324.5,199.833 324.5,199.5C 322.606,193.462 318.439,191.129 312,192.5C 308.074,192.866 304.24,193.533 300.5,194.5C 300.5,195.833 300.5,197.167 300.5,198.5C 296.833,202.833 292.833,206.833 288.5,210.5C 287.167,210.5 285.833,210.5 284.5,210.5C 284.5,211.833 284.5,213.167 284.5,214.5C 284.167,215.5 283.5,216.167 282.5,216.5C 281.417,216.461 280.417,216.127 279.5,215.5C 278.614,216.325 278.281,217.325 278.5,218.5C 277.5,218.5 276.5,218.5 275.5,218.5C 275.167,220.5 274.833,222.5 274.5,224.5C 272.983,224.511 271.816,225.177 271,226.5C 270,225.833 269,225.167 268,224.5C 267.503,226.81 267.337,229.143 267.5,231.5C 265.167,231.833 263.833,233.167 263.5,235.5C 263.5,236.167 263.167,236.5 262.5,236.5C 261.07,236.579 259.736,236.246 258.5,235.5C 257.571,236.689 257.238,238.022 257.5,239.5C 255.801,239.34 254.134,239.506 252.5,240C 253.756,240.417 254.423,241.25 254.5,242.5C 253.167,242.5 251.833,242.5 250.5,242.5C 250.5,167.167 250.5,91.8333 250.5,16.5C 255.527,16.5029 260.527,16.8363 265.5,17.5 Z"/></g>
<g><path style="opacity:0.004" fill="#fefffe" d="M 98.5,17.5 C 99.8333,18.1667 99.8333,18.1667 98.5,17.5 Z"/></g>
<g><path style="opacity:0.004" fill="#fefffe" d="M 288.5,19.5 C 289.833,20.1667 289.833,20.1667 288.5,19.5 Z"/></g>
<g><path style="opacity:0.937" fill="#6f9ee4" d="M 271.5,19.5 C 277.679,22.0105 282.679,26.0105 286.5,31.5C 282.728,28.9059 279.061,26.0726 275.5,23C 274.207,22.51 272.873,22.3433 271.5,22.5C 271.5,21.5 271.5,20.5 271.5,19.5 Z"/></g>
<g><path style="opacity:1" fill="#5ecbf0" d="M 249.5,14.5 C 249.5,14.8333 249.5,15.1667 249.5,15.5C 248.167,93.5 248.167,171.5 249.5,249.5C 242.496,256.004 235.663,262.671 229,269.5C 217.157,258.99 205.657,248.156 194.5,237C 189.555,235.173 184.555,235.006 179.5,236.5C 178.167,236.5 176.833,236.5 175.5,236.5C 175.5,237.5 175.5,238.5 175.5,239.5C 172.442,240.233 170.775,242.233 170.5,245.5C 171.168,250.513 171.835,255.513 172.5,260.5C 175.385,261.382 178.052,262.716 180.5,264.5C 194.193,277.861 207.86,291.194 221.5,304.5C 221.414,305.496 221.748,306.329 222.5,307C 230.814,309.169 237.48,306.835 242.5,300C 243.448,299.517 244.448,299.351 245.5,299.5C 245.51,360.322 245.51,421.156 245.5,482C 244.437,483.188 243.103,483.688 241.5,483.5C 241.732,478.203 239.898,477.203 236,480.5C 232.257,480.212 229.09,478.712 226.5,476C 224.866,475.506 223.199,475.34 221.5,475.5C 212.507,467.84 203.84,459.84 195.5,451.5C 193.865,448.231 192.199,444.897 190.5,441.5C 189.914,441.709 189.414,442.043 189,442.5C 187.67,441.418 186.17,440.751 184.5,440.5C 182.33,439.162 180.664,437.328 179.5,435C 177.404,433.234 175.071,431.901 172.5,431C 153.167,430.667 133.833,430.333 114.5,430C 88.3527,426.352 73.3527,411.519 69.5,385.5C 69.6666,364.831 69.5,344.164 69,323.5C 67.9914,321.975 67.4914,320.308 67.5,318.5C 66.5,318.5 65.5,318.5 64.5,318.5C 64.5,317.5 64.5,316.5 64.5,315.5C 62.8333,315.5 61.1667,315.5 59.5,315.5C 48.1392,303.807 36.8059,292.14 25.5,280.5C 21.9917,273.926 19.1584,266.926 17,259.5C 16.3333,252.167 16.3333,244.833 17,237.5C 19.0895,233.332 20.5895,228.998 21.5,224.5C 22.5293,221.109 24.5293,218.443 27.5,216.5C 29.914,215.089 31.5806,213.089 32.5,210.5C 33.552,210.649 34.552,210.483 35.5,210C 39.8333,205.667 44.1667,201.333 48.5,197C 51.0841,195.17 53.7508,194.336 56.5,194.5C 57.6224,192.956 57.289,191.623 55.5,190.5C 56.9501,189.15 57.6168,187.484 57.5,185.5C 60.9236,182.594 64.7569,180.26 69,178.5C 69.5,156.836 69.6666,135.169 69.5,113.5C 73.1667,87.8333 87.8333,73.1667 113.5,69.5C 134.503,69.6666 155.503,69.5 176.5,69C 179.816,66.5229 182.149,63.3563 183.5,59.5C 189.275,54.8996 194.941,50.0663 200.5,45C 206.763,39.243 212.43,33.0763 217.5,26.5C 226.507,18.3825 237.174,14.3825 249.5,14.5 Z"/></g>
<g><path style="opacity:0.867" fill="#8dd3e6" d="M 217.5,26.5 C 212.43,33.0763 206.763,39.243 200.5,45C 194.941,50.0663 189.275,54.8996 183.5,59.5C 194.198,47.801 205.532,36.801 217.5,26.5 Z"/></g>
<g><path style="opacity:1" fill="#4a97f4" d="M 249.5,14.5 C 255.228,14.0534 260.562,15.0534 265.5,17.5C 260.527,16.8363 255.527,16.5029 250.5,16.5C 250.5,91.8333 250.5,167.167 250.5,242.5C 251.833,242.5 253.167,242.5 254.5,242.5C 254.5,243.167 254.5,243.833 254.5,244.5C 253.127,244.343 251.793,244.51 250.5,245C 251.696,245.654 251.696,246.154 250.5,246.5C 249.5,169.503 249.167,92.5029 249.5,15.5C 249.5,15.1667 249.5,14.8333 249.5,14.5 Z"/></g>
<g><path style="opacity:1" fill="#66c7fd" d="M 249.5,15.5 C 249.167,92.5029 249.5,169.503 250.5,246.5C 251.696,246.154 251.696,245.654 250.5,245C 251.793,244.51 253.127,244.343 254.5,244.5C 253.167,246.5 251.5,248.167 249.5,249.5C 248.167,171.5 248.167,93.5 249.5,15.5 Z"/></g>
<g><path style="opacity:0.004" fill="#fefffe" d="M 66.5,35.5 C 67.8333,36.1667 67.8333,36.1667 66.5,35.5 Z"/></g>
<g><path style="opacity:0.004" fill="#fefffe" d="M 366.5,38.5 C 367.833,39.1667 367.833,39.1667 366.5,38.5 Z"/></g>
<g><path style="opacity:0.004" fill="#fefffe" d="M 40.5,39.5 C 41.8333,40.1667 41.8333,40.1667 40.5,39.5 Z"/></g>
<g><path style="opacity:0.004" fill="#fefffe" d="M 22.5,42.5 C 23.8333,43.1667 23.8333,43.1667 22.5,42.5 Z"/></g>
<g><path style="opacity:0.894" fill="#8fb3e9" d="M 299.5,43.5 C 301.167,44.5 302.5,45.8333 303.5,47.5C 300.858,47.5123 299.525,46.179 299.5,43.5 Z"/></g>
<g><path style="opacity:0.871" fill="#8fb2ec" d="M 303.5,47.5 C 305.167,48.5 306.5,49.8333 307.5,51.5C 304.858,51.5123 303.525,50.179 303.5,47.5 Z"/></g>
<g><path style="opacity:0.855" fill="#8eb5ef" d="M 307.5,51.5 C 309.167,52.5 310.5,53.8333 311.5,55.5C 308.858,55.5123 307.525,54.179 307.5,51.5 Z"/></g>
<g><path style="opacity:0.439" fill="#aacdf6" d="M 311.5,55.5 C 314.5,57.8333 317.167,60.5 319.5,63.5C 315.833,61.8333 313.167,59.1667 311.5,55.5 Z"/></g>
<g><path style="opacity:0.004" fill="#fefffe" d="M 326.5,59.5 C 327.833,60.1667 327.833,60.1667 326.5,59.5 Z"/></g>
<g><path style="opacity:0.184" fill="#98d4e8" d="M 183.5,59.5 C 182.149,63.3563 179.816,66.5229 176.5,69C 155.503,69.5 134.503,69.6666 113.5,69.5C 132.996,68.6682 152.662,68.1682 172.5,68C 173.5,67.6667 174.5,67.3333 175.5,67C 178.285,64.5641 180.952,62.0641 183.5,59.5 Z"/></g>
<g><path style="opacity:0.349" fill="#8fb6e7" d="M 319.5,63.5 C 321.465,65.4879 323.798,66.9879 326.5,68C 346.338,68.1682 366.004,68.6682 385.5,69.5C 364.823,69.833 344.156,69.4997 323.5,68.5C 321.069,67.6399 319.736,65.9732 319.5,63.5 Z"/></g>
<g><path style="opacity:0.004" fill="#fefffe" d="M 68.5,72.5 C 69.8333,73.1667 69.8333,73.1667 68.5,72.5 Z"/></g>
<g><path style="opacity:0.004" fill="#fefffe" d="M 485.5,80.5 C 486.833,81.1667 486.833,81.1667 485.5,80.5 Z"/></g>
<g><path style="opacity:1" fill="#5196f3" d="M 395.5,71.5 C 403.407,73.4528 410.074,77.4528 415.5,83.5C 413.574,82.7577 411.741,81.7577 410,80.5C 410.311,81.9346 410.145,83.2679 409.5,84.5C 411.401,85.935 411.734,87.6017 410.5,89.5C 408.833,87.8333 407.167,86.1667 405.5,84.5C 407.571,83.0241 408.571,81.0241 408.5,78.5C 406.857,78.5198 405.524,77.8532 404.5,76.5C 403.914,76.7093 403.414,77.0426 403,77.5C 400.24,75.5802 397.74,73.5802 395.5,71.5 Z"/></g>
<g><path style="opacity:0.973" fill="#71a7ea" d="M 422.5,92.5 C 424.25,93.6594 425.25,95.326 425.5,97.5C 423.241,96.656 422.241,94.9893 422.5,92.5 Z"/></g>
<g><path style="opacity:0.004" fill="#fefffe" d="M 480.5,95.5 C 481.833,96.1667 481.833,96.1667 480.5,95.5 Z"/></g>
<g><path style="opacity:0.004" fill="#fefffe" d="M 466.5,96.5 C 467.833,97.1667 467.833,97.1667 466.5,96.5 Z"/></g>
<g><path style="opacity:0.847" fill="#6a9eea" d="M 425.5,97.5 C 427.91,102.46 429.41,107.794 430,113.5C 430.5,132.83 430.667,152.164 430.5,171.5C 428.676,152.192 427.843,132.526 428,112.5C 426.842,112.002 426.009,111.169 425.5,110C 426.599,105.848 426.599,101.682 425.5,97.5 Z"/></g>
<g><path style="opacity:0.004" fill="#fefffe" d="M 447.5,162.5 C 448.833,163.167 448.833,163.167 447.5,162.5 Z"/></g>
<g><path style="opacity:1" fill="#8bd4e9" d="M 69.5,113.5 C 69.6666,135.169 69.5,156.836 69,178.5C 64.7569,180.26 60.9236,182.594 57.5,185.5C 60.1288,182.369 62.9621,179.369 66,176.5C 66.8624,174.913 67.5291,173.246 68,171.5C 68.1682,151.996 68.6682,132.662 69.5,113.5 Z"/></g>
<g><path style="opacity:0.478" fill="#a2cbf5" d="M 433.5,177.5 C 435.833,179.167 437.833,181.167 439.5,183.5C 436.5,182.5 434.5,180.5 433.5,177.5 Z"/></g>
<g><path style="opacity:0.435" fill="#a0c5f4" d="M 439.5,183.5 C 442.5,185.833 445.167,188.5 447.5,191.5C 443.805,189.805 441.139,187.139 439.5,183.5 Z"/></g>
<g><path style="opacity:0.906" fill="#81afee" d="M 324.5,199.5 C 316.783,191.938 308.783,191.605 300.5,198.5C 300.5,197.167 300.5,195.833 300.5,194.5C 304.24,193.533 308.074,192.866 312,192.5C 318.439,191.129 322.606,193.462 324.5,199.5 Z"/></g>
<g><path style="opacity:0.882" fill="#74a3e8" d="M 447.5,191.5 C 450.392,194.271 453.058,197.271 455.5,200.5C 453.629,200.141 452.129,199.141 451,197.5C 449.179,195.854 448.013,193.854 447.5,191.5 Z"/></g>
<g><path style="opacity:0.878" fill="#80cce5" d="M 57.5,185.5 C 57.6168,187.484 56.9501,189.15 55.5,190.5C 57.289,191.623 57.6224,192.956 56.5,194.5C 53.7508,194.336 51.0841,195.17 48.5,197C 44.1667,201.333 39.8333,205.667 35.5,210C 34.552,210.483 33.552,210.649 32.5,210.5C 41.1667,202.5 49.5,194.167 57.5,185.5 Z"/></g>
<g><path style="opacity:0.141" fill="#84a9e4" d="M 324.5,200.5 C 325.75,200.577 326.583,201.244 327,202.5C 327.494,204.134 327.66,205.801 327.5,207.5C 326.659,205.188 325.659,202.855 324.5,200.5 Z"/></g>
<g><path style="opacity:0.91" fill="#89afe7" d="M 463.5,207.5 C 465.833,209.167 467.833,211.167 469.5,213.5C 465.658,213.418 463.658,211.418 463.5,207.5 Z"/></g>
<g><path style="opacity:0.941" fill="#89baea" d="M 288.5,210.5 C 287.5,212.167 286.167,213.5 284.5,214.5C 284.5,213.167 284.5,211.833 284.5,210.5C 285.833,210.5 287.167,210.5 288.5,210.5 Z"/></g>
<g><path style="opacity:0.282" fill="#c2e7f1" d="M 32.5,210.5 C 31.5806,213.089 29.914,215.089 27.5,216.5C 28.4194,213.911 30.086,211.911 32.5,210.5 Z"/></g>
<g><path style="opacity:1" fill="#7baaf2" d="M 282.5,216.5 C 280.167,219.5 277.5,222.167 274.5,224.5C 274.833,222.5 275.167,220.5 275.5,218.5C 276.5,218.5 277.5,218.5 278.5,218.5C 278.281,217.325 278.614,216.325 279.5,215.5C 280.417,216.127 281.417,216.461 282.5,216.5 Z"/></g>
<g><path style="opacity:0.549" fill="#a1c4fa" d="M 473.5,218.5 C 475.262,219.262 476.262,220.596 476.5,222.5C 474.738,221.738 473.738,220.404 473.5,218.5 Z"/></g>
<g><path style="opacity:1" fill="#81aff3" d="M 274.5,224.5 C 272.5,227.167 270.167,229.5 267.5,231.5C 267.337,229.143 267.503,226.81 268,224.5C 269,225.167 270,225.833 271,226.5C 271.816,225.177 272.983,224.511 274.5,224.5 Z"/></g>
<g><path style="opacity:0.706" fill="#80afed" d="M 476.5,222.5 C 480.168,227.518 482.502,233.184 483.5,239.5C 481.364,235.227 479.197,230.894 477,226.5C 476.51,225.207 476.343,223.873 476.5,222.5 Z"/></g>
<g><path style="opacity:0.663" fill="#639be2" d="M 324.5,216.5 C 318.762,223.744 312.428,230.577 305.5,237C 304.906,237.464 304.239,237.631 303.5,237.5C 310.167,230.167 317.167,223.167 324.5,216.5 Z"/></g>
<g><path style="opacity:0.063" fill="#adcef9" d="M 267.5,231.5 C 266.5,233.167 265.167,234.5 263.5,235.5C 263.833,233.167 265.167,231.833 267.5,231.5 Z"/></g>
<g><path style="opacity:1" fill="#7aa9f0" d="M 262.5,236.5 C 260.167,239.5 257.5,242.167 254.5,244.5C 254.5,243.833 254.5,243.167 254.5,242.5C 254.423,241.25 253.756,240.417 252.5,240C 254.134,239.506 255.801,239.34 257.5,239.5C 257.238,238.022 257.571,236.689 258.5,235.5C 259.736,236.246 261.07,236.579 262.5,236.5 Z"/></g>
<g><path style="opacity:0.992" fill="#7bcbe3" d="M 179.5,236.5 C 170.029,246.101 170.362,255.435 180.5,264.5C 178.052,262.716 175.385,261.382 172.5,260.5C 171.835,255.513 171.168,250.513 170.5,245.5C 170.775,242.233 172.442,240.233 175.5,239.5C 175.5,238.5 175.5,237.5 175.5,236.5C 176.833,236.5 178.167,236.5 179.5,236.5 Z"/></g>
<g><path style="opacity:0.827" fill="#85d0e9" d="M 21.5,224.5 C 20.5895,228.998 19.0895,233.332 17,237.5C 16.3333,244.833 16.3333,252.167 17,259.5C 19.1584,266.926 21.9917,273.926 25.5,280.5C 16.0885,268.86 12.5885,255.527 15,240.5C 16.115,234.636 18.2816,229.303 21.5,224.5 Z"/></g>
<g><path style="opacity:0.588" fill="#689de1" d="M 287.5,253.5 C 287.631,254.239 287.464,254.906 287,255.5C 277.579,265.425 267.746,274.758 257.5,283.5C 267.167,273.167 277.167,263.167 287.5,253.5 Z"/></g>
<g><path style="opacity:1" fill="#79a8f1" d="M 483.5,259.5 C 481.957,268.836 477.957,276.836 471.5,283.5C 471.5,283.167 471.5,282.833 471.5,282.5C 470.101,278.355 471.768,276.022 476.5,275.5C 477.826,269.535 480.159,264.201 483.5,259.5 Z"/></g>
<g><path style="opacity:1" fill="#73a3ef" d="M 471.5,282.5 C 471.5,282.833 471.5,283.167 471.5,283.5C 467.793,288.208 463.46,292.208 458.5,295.5C 458.34,293.801 458.506,292.134 459,290.5C 459.333,290.833 459.667,291.167 460,291.5C 460.71,290.027 461.876,289.36 463.5,289.5C 463.5,288.5 463.5,287.5 463.5,286.5C 464.5,286.5 465.5,286.5 466.5,286.5C 465.963,282.019 467.63,280.686 471.5,282.5 Z"/></g>
<g><path style="opacity:1" fill="#4f99f3" d="M 257.5,283.5 C 255.949,286.563 253.782,289.229 251,291.5C 250.5,355.166 250.333,418.832 250.5,482.5C 257.157,481.503 263.824,480.503 270.5,479.5C 264.136,483.311 257.136,484.977 249.5,484.5C 249.5,420.833 249.5,357.167 249.5,293.5C 249.5,292.833 249.5,292.167 249.5,291.5C 251.833,288.5 254.5,285.833 257.5,283.5 Z"/></g>
<g><path style="opacity:1" fill="#60ccf0" d="M 249.5,293.5 C 249.5,357.167 249.5,420.833 249.5,484.5C 239.04,484.679 229.706,481.679 221.5,475.5C 223.199,475.34 224.866,475.506 226.5,476C 229.09,478.712 232.257,480.212 236,480.5C 239.898,477.203 241.732,478.203 241.5,483.5C 243.103,483.688 244.437,483.188 245.5,482C 245.51,421.156 245.51,360.322 245.5,299.5C 246.238,297.06 247.571,295.06 249.5,293.5 Z"/></g>
<g><path style="opacity:0.831" fill="#81cde6" d="M 249.5,291.5 C 249.5,292.167 249.5,292.833 249.5,293.5C 247.571,295.06 246.238,297.06 245.5,299.5C 244.448,299.351 243.448,299.517 242.5,300C 237.48,306.835 230.814,309.169 222.5,307C 221.748,306.329 221.414,305.496 221.5,304.5C 227.067,306.233 232.4,305.733 237.5,303C 241.369,298.963 245.369,295.13 249.5,291.5 Z"/></g>
<g><path style="opacity:1" fill="#7babf2" d="M 454.5,299.5 C 451.542,304.126 447.876,308.126 443.5,311.5C 443.5,309.5 443.5,307.5 443.5,305.5C 445.5,304.833 447.5,304.167 449.5,303.5C 449.5,302.167 449.5,300.833 449.5,299.5C 451.167,299.5 452.833,299.5 454.5,299.5 Z"/></g>
<g><path style="opacity:1" fill="#70a3f6" d="M 443.5,311.5 C 440.204,315.298 436.704,318.964 433,322.5C 432.243,324.315 431.41,325.981 430.5,327.5C 430.756,325.208 430.423,323.041 429.5,321C 430.766,320.691 431.933,320.191 433,319.5C 433.199,317.598 434.033,316.098 435.5,315C 434.833,314.667 434.167,314.333 433.5,314C 436.385,310.976 439.719,310.143 443.5,311.5 Z"/></g>
<g><path style="opacity:0.004" fill="#fefffe" d="M 441.5,316.5 C 442.833,317.167 442.833,317.167 441.5,316.5 Z"/></g>
<g><path style="opacity:0.004" fill="#fefffe" d="M 12.5,327.5 C 13.8333,328.167 13.8333,328.167 12.5,327.5 Z"/></g>
<g><path style="opacity:0.176" fill="#98d5e9" d="M 59.5,315.5 C 61.1667,315.5 62.8333,315.5 64.5,315.5C 64.5,316.5 64.5,317.5 64.5,318.5C 65.5,318.5 66.5,318.5 67.5,318.5C 67.4914,320.308 67.9914,321.975 69,323.5C 69.5,344.164 69.6666,364.831 69.5,385.5C 68.6682,366.338 68.1682,347.004 68,327.5C 66.1424,322.809 63.309,318.809 59.5,315.5 Z"/></g>
<g><path style="opacity:0.004" fill="#fefffe" d="M 496.5,338.5 C 497.833,339.167 497.833,339.167 496.5,338.5 Z"/></g>
<g><path style="opacity:0.004" fill="#fefffe" d="M 456.5,349.5 C 457.833,350.167 457.833,350.167 456.5,349.5 Z"/></g>
<g><path style="opacity:0.004" fill="#fefffe" d="M 47.5,358.5 C 48.8333,359.167 48.8333,359.167 47.5,358.5 Z"/></g>
<g><path style="opacity:0.842" fill="#6ea0ea" d="M 430.5,327.5 C 430.667,346.836 430.5,366.17 430,385.5C 429.384,391.988 427.55,397.988 424.5,403.5C 425.037,399.248 426.037,395.081 427.5,391C 426.614,388.192 426.447,385.359 427,382.5C 427.333,382.833 427.667,383.167 428,383.5C 428.333,367.5 428.667,351.5 429,335.5C 429.183,332.635 429.683,329.969 430.5,327.5 Z"/></g>
<g><path style="opacity:0.004" fill="#fefffe" d="M 492.5,382.5 C 493.833,383.167 493.833,383.167 492.5,382.5 Z"/></g>
<g><path style="opacity:1" fill="#699eea" d="M 424.5,403.5 C 422.471,408.224 419.471,412.224 415.5,415.5C 415.351,414.448 415.517,413.448 416,412.5C 419.366,411.103 420.533,408.769 419.5,405.5C 421.022,404.438 422.688,403.771 424.5,403.5 Z"/></g>
<g><path style="opacity:0.004" fill="#fefffe" d="M 437.5,415.5 C 438.833,416.167 438.833,416.167 437.5,415.5 Z"/></g>
<g><path style="opacity:0.859" fill="#6da2ed" d="M 395.5,427.5 C 392.423,428.856 389.09,429.689 385.5,430C 365.833,430.333 346.167,430.667 326.5,431C 324.807,431.847 323.14,432.68 321.5,433.5C 320.833,433.5 320.167,433.5 319.5,433.5C 320.684,432.312 320.684,431.145 319.5,430C 321.92,430.988 324.253,430.655 326.5,429C 346.088,429.104 365.588,428.271 385,426.5C 388.458,427.286 391.958,427.62 395.5,427.5 Z"/></g>
<g><path style="opacity:0.004" fill="#fefffe" d="M 489.5,431.5 C 490.833,432.167 490.833,432.167 489.5,431.5 Z"/></g>
<g><path style="opacity:1" fill="#87b3f3" d="M 319.5,433.5 C 320.167,433.5 320.833,433.5 321.5,433.5C 319.833,435.833 317.833,437.833 315.5,439.5C 316.15,437.565 316.483,435.565 316.5,433.5C 317.5,433.5 318.5,433.5 319.5,433.5 Z"/></g>
<g><path style="opacity:0.004" fill="#fefffe" d="M 58.5,437.5 C 59.8333,438.167 59.8333,438.167 58.5,437.5 Z"/></g>
<g><path style="opacity:1" fill="#8dd5ec" d="M 184.5,440.5 C 186.17,440.751 187.67,441.418 189,442.5C 189.414,442.043 189.914,441.709 190.5,441.5C 192.199,444.897 193.865,448.231 195.5,451.5C 191.5,448.167 187.833,444.5 184.5,440.5 Z"/></g>
<g><path style="opacity:1" fill="#80adf4" d="M 315.5,439.5 C 310.833,444.833 305.833,449.833 300.5,454.5C 300.5,453.167 300.5,451.833 300.5,450.5C 301.5,450.5 302.5,450.5 303.5,450.5C 303.837,445.991 306.17,443.157 310.5,442C 308.842,441.275 308.342,440.108 309,438.5C 309.519,439.516 310.353,440.182 311.5,440.5C 312.849,440.154 314.183,439.821 315.5,439.5 Z"/></g>
<g><path style="opacity:0.004" fill="#fefffe" d="M 341.5,446.5 C 342.833,447.167 342.833,447.167 341.5,446.5 Z"/></g>
<g><path style="opacity:0.004" fill="#fefffe" d="M 433.5,452.5 C 434.833,453.167 434.833,453.167 433.5,452.5 Z"/></g>
<g><path style="opacity:0.004" fill="#fefffe" d="M 32.5,457.5 C 33.8333,458.167 33.8333,458.167 32.5,457.5 Z"/></g>
<g><path style="opacity:0.004" fill="#fefffe" d="M 87.5,465.5 C 88.8333,466.167 88.8333,466.167 87.5,465.5 Z"/></g>
<g><path style="opacity:1" fill="#639bf1" d="M 287.5,466.5 C 283.351,472.318 278.017,476.652 271.5,479.5C 271.5,478.5 271.5,477.5 271.5,476.5C 272.5,476.5 273.5,476.5 274.5,476.5C 274.281,475.325 274.614,474.325 275.5,473.5C 276.396,474.506 277.062,474.506 277.5,473.5C 276.975,472.808 276.308,472.308 275.5,472C 277.677,470.798 280.011,470.298 282.5,470.5C 282.746,467.53 284.412,466.197 287.5,466.5 Z"/></g>
<g><path style="opacity:0.004" fill="#fefffe" d="M 305.5,470.5 C 306.833,471.167 306.833,471.167 305.5,470.5 Z"/></g>
<g><path style="opacity:0.004" fill="#fefffe" d="M 135.5,471.5 C 136.833,472.167 136.833,472.167 135.5,471.5 Z"/></g>
<g><path style="opacity:0.004" fill="#fefffe" d="M 201.5,473.5 C 202.833,474.167 202.833,474.167 201.5,473.5 Z"/></g>
<g><path style="opacity:0.004" fill="#fefffe" d="M 353.5,474.5 C 354.833,475.167 354.833,475.167 353.5,474.5 Z"/></g>
<g><path style="opacity:0.004" fill="#fefffe" d="M 466.5,475.5 C 467.833,476.167 467.833,476.167 466.5,475.5 Z"/></g>
<g><path style="opacity:0.004" fill="#fefffe" d="M 117.5,476.5 C 118.833,477.167 118.833,477.167 117.5,476.5 Z"/></g>
<g><path style="opacity:0.004" fill="#fefffe" d="M 271.5,490.5 C 272.833,491.167 272.833,491.167 271.5,490.5 Z"/></g>
</svg>
